<svg width="12" height="13" viewBox="0 0 12 13" fill="none" xmlns="http://www.w3.org/2000/svg">
<mask id="mask0_60_237" style="mask-type:alpha" maskUnits="userSpaceOnUse" x="0" y="0" width="12" height="13">
<rect y="0.700012" width="12" height="12" fill="#BEBEBE"/>
</mask>
<g mask="url(#mask0_60_237)">
<path d="M1.33333 12.7C0.966667 12.7 0.652667 12.5826 0.391333 12.3478C0.130444 12.1126 0 11.83 0 11.5V3.10001C0 2.77001 0.130444 2.48761 0.391333 2.25281C0.652667 2.01761 0.966667 1.90001 1.33333 1.90001H2V0.700012H3.33333V1.90001H8.66667V0.700012H10V1.90001H10.6667C11.0333 1.90001 11.3473 2.01761 11.6087 2.25281C11.8696 2.48761 12 2.77001 12 3.10001V11.5C12 11.83 11.8696 12.1126 11.6087 12.3478C11.3473 12.5826 11.0333 12.7 10.6667 12.7H1.33333ZM1.33333 11.5H10.6667V5.50001H1.33333V11.5ZM1.33333 4.30001H10.6667V3.10001H1.33333V4.30001Z" fill="#005567" fill-opacity="0.38"/>
</g>
</svg>
