<svg width="9" height="9" viewBox="0 0 9 9" fill="none" xmlns="http://www.w3.org/2000/svg">
<mask id="mask0_48_59" style="mask-type:alpha" maskUnits="userSpaceOnUse" x="0" y="0" width="9" height="9">
<rect x="0.600014" y="0.799988" width="7.8" height="7.8" fill="black"/>
</mask>
<g mask="url(#mask0_48_59)">
<path d="M4.50001 5.86999L6.06001 4.30999H2.94001L4.50001 5.86999ZM4.50001 8.59999C3.96051 8.59999 3.45351 8.49755 2.97901 8.29267C2.50451 8.08805 2.09176 7.81024 1.74076 7.45924C1.38976 7.10824 1.11195 6.69549 0.907334 6.22099C0.702454 5.74649 0.600014 5.23949 0.600014 4.69999C0.600014 4.16049 0.702454 3.65349 0.907334 3.17899C1.11195 2.70449 1.38976 2.29174 1.74076 1.94074C2.09176 1.58974 2.50451 1.3118 2.97901 1.10692C3.45351 0.902298 3.96051 0.799988 4.50001 0.799988C5.03951 0.799988 5.54651 0.902298 6.02101 1.10692C6.49551 1.3118 6.90826 1.58974 7.25926 1.94074C7.61026 2.29174 7.88807 2.70449 8.09269 3.17899C8.29757 3.65349 8.40001 4.16049 8.40001 4.69999C8.40001 5.23949 8.29757 5.74649 8.09269 6.22099C7.88807 6.69549 7.61026 7.10824 7.25926 7.45924C6.90826 7.81024 6.49551 8.08805 6.02101 8.29267C5.54651 8.49755 5.03951 8.59999 4.50001 8.59999ZM4.50001 7.81999C5.37101 7.81999 6.10876 7.51774 6.71326 6.91324C7.31776 6.30874 7.62001 5.57099 7.62001 4.69999C7.62001 3.82899 7.31776 3.09124 6.71326 2.48674C6.10876 1.88224 5.37101 1.57999 4.50001 1.57999C3.62901 1.57999 2.89126 1.88224 2.28676 2.48674C1.68226 3.09124 1.38001 3.82899 1.38001 4.69999C1.38001 5.57099 1.68226 6.30874 2.28676 6.91324C2.89126 7.51774 3.62901 7.81999 4.50001 7.81999Z" fill="#005567" fill-opacity="0.38"/>
</g>
</svg>
