<svg width="24" height="24" viewBox="0 0 24 24" fill="none" xmlns="http://www.w3.org/2000/svg">
<g clip-path="url(#clip0_562_802)">
<path d="M24.0001 12C24.0001 5.37207 18.628 0 12 0C5.37207 0 0 5.37207 0 12C0 17.9902 4.38577 22.9546 10.1261 23.8554V15.4718H7.08167V12H10.1261V9.35674C10.1261 6.3518 11.9146 4.68824 14.6565 4.68824C15.9716 4.68824 17.3458 4.92495 17.3458 4.92495V7.87729H15.8335C14.3409 7.87729 13.8806 8.80441 13.8806 9.75127V12H17.2077L16.6751 15.4718H13.8806V23.8554C19.6143 22.9546 24.0001 17.9902 24.0001 12Z" fill="#1877F2"/>
<path d="M16.6687 15.4717L17.2013 11.9999H13.8741V9.75114C13.8741 8.80429 14.341 7.87716 15.827 7.87716H17.3393V4.92482C17.3393 4.92482 15.9651 4.68811 14.65 4.68811C11.9081 4.68811 10.1196 6.35168 10.1196 9.35662V11.9999H7.0752V15.4717H10.1196V23.8553C10.7311 23.9539 11.3558 24 11.9936 24C12.6314 24 13.256 23.9474 13.8675 23.8553V15.4717H16.6687Z" fill="white"/>
</g>
<defs>
<clipPath id="clip0_562_802">
<rect width="24" height="24" fill="white"/>
</clipPath>
</defs>
</svg>
