<svg width="11" height="11" viewBox="0 0 11 11" fill="none" xmlns="http://www.w3.org/2000/svg">
<g clip-path="url(#clip0_120_354)">
<path fill-rule="evenodd" clip-rule="evenodd" d="M1.51877 2.02501C1.38451 2.02501 1.25574 2.07834 1.1608 2.17328C1.06586 2.26822 1.01252 2.39699 1.01252 2.53126V3.71251H9.78752V3.20626C9.78752 3.07199 9.73419 2.94322 9.63925 2.84828C9.54431 2.75334 9.41554 2.70001 9.28127 2.70001H4.64297C4.40975 2.7 4.18173 2.63095 3.98769 2.50157C3.98768 2.50157 3.98767 2.50156 3.98766 2.50156L3.40041 2.11006C3.31725 2.0546 3.21953 2.02501 3.11958 2.02501C3.11958 2.02501 3.11958 2.02501 3.11958 2.02501H1.51877ZM9.78752 4.38751H1.01252V8.26876C1.01252 8.40302 1.06586 8.53179 1.1608 8.62673C1.25574 8.72167 1.38451 8.77501 1.51877 8.77501H9.28127C9.41554 8.77501 9.54431 8.72167 9.63925 8.62673C9.73419 8.53179 9.78752 8.40302 9.78752 8.26876V4.38751ZM0.337524 8.26876C0.337524 8.58204 0.461977 8.8825 0.683505 9.10403C0.905032 9.32555 1.20549 9.45001 1.51877 9.45001H9.28127C9.59456 9.45001 9.89502 9.32555 10.1165 9.10403C10.3381 8.8825 10.4625 8.58204 10.4625 8.26876V3.20626C10.4625 2.89297 10.3381 2.59251 10.1165 2.37099C9.89502 2.14946 9.59456 2.02501 9.28127 2.02501H4.64298C4.64298 2.02501 4.64298 2.02501 4.64298 2.02501C4.54302 2.025 4.4453 1.99541 4.36214 1.93996L3.77489 1.54846C3.77488 1.54845 3.77487 1.54844 3.77486 1.54844C3.58082 1.41906 3.35281 1.35001 3.11959 1.35001H1.51877C1.20549 1.35001 0.905032 1.47446 0.683505 1.69599C0.461977 1.91751 0.337524 2.21797 0.337524 2.53126V8.26876Z" fill="#373737"/>
</g>
<defs>
<clipPath id="clip0_120_354">
<rect width="10.8" height="10.8" fill="white"/>
</clipPath>
</defs>
</svg>
