<svg width="24" height="24" viewBox="0 0 24 24" fill="none" xmlns="http://www.w3.org/2000/svg">
<g clip-path="url(#clip0_562_808)">
<path d="M12 0C5.36987 0 0 5.45153 0 12.1825C0 17.9077 3.86962 22.6594 9.09038 23.999C9.03013 23.8466 9.00051 23.633 9.00051 23.4204V21.3489H7.50026C6.69038 21.3489 5.93974 20.9839 5.60987 20.3131C5.21974 19.5822 5.15949 18.4552 4.16987 17.7543C3.86962 17.5106 4.10962 17.267 4.43949 17.297C5.06962 17.4795 5.57923 17.9067 6.05923 18.5454C6.53923 19.1851 6.74962 19.3375 7.64936 19.3375C8.06911 19.3375 8.72885 19.3074 9.32936 19.2151C9.65923 18.3618 10.2291 17.6008 10.9195 17.2359C6.89974 16.7486 4.97974 14.7382 4.97974 11.9969C4.97974 10.8087 5.48936 9.6817 6.32987 8.7071C6.06026 7.76257 5.69974 5.81337 6.45038 5.05236C8.25089 5.05236 9.33038 6.24054 9.6 6.54432C10.4997 6.2395 11.4904 6.05702 12.5096 6.05702C13.5595 6.05702 14.5195 6.2395 15.4192 6.54432C15.6889 6.2395 16.7694 5.05236 18.5689 5.05236C19.2889 5.78331 18.959 7.76257 18.6587 8.7071C19.4992 9.65163 19.9792 10.8087 19.9792 11.9969C19.9792 14.7382 18.0889 16.7486 14.0997 17.1747C15.2099 17.7532 15.9901 19.3976 15.9901 20.6159V23.3904C15.9901 23.4816 15.9605 23.5728 15.9605 23.6641C20.64 22.0197 24 17.5127 24 12.1825C24 5.45153 18.6301 0 12 0Z" fill="black"/>
</g>
<defs>
<clipPath id="clip0_562_808">
<rect width="24" height="24" fill="white"/>
</clipPath>
</defs>
</svg>
