<svg width="22" height="22" viewBox="0 0 22 22" fill="none" xmlns="http://www.w3.org/2000/svg">
<mask id="mask0_1368_289" style="mask-type:alpha" maskUnits="userSpaceOnUse" x="0" y="0" width="22" height="22">
<rect y="0.399994" width="21.6" height="21.6" fill="white"/>
</mask>
<g mask="url(#mask0_1368_289)">
<path d="M11.2749 14.8C11.126 14.6074 11.0516 14.3887 11.0516 14.144C11.0516 13.8999 11.126 13.6963 11.2749 13.5333L12.7774 11.8889H6.95022C6.72011 11.8889 6.52736 11.8036 6.37197 11.6329C6.21603 11.4628 6.13807 11.2519 6.13807 11C6.13807 10.7481 6.21603 10.5369 6.37197 10.3662C6.52736 10.1961 6.72011 10.1111 6.95022 10.1111H12.7774L11.2749 8.46667C11.1125 8.28889 11.0313 8.07793 11.0313 7.83378C11.0313 7.58904 11.1125 7.37778 11.2749 7.2C11.4238 7.02222 11.6101 6.93333 11.8337 6.93333C12.0568 6.93333 12.2428 7.01482 12.3917 7.17778L15.3154 10.3778C15.3966 10.4667 15.4543 10.563 15.4884 10.6667C15.522 10.7704 15.5388 10.8815 15.5388 11C15.5388 11.1185 15.522 11.2296 15.4884 11.3333C15.4543 11.437 15.3966 11.5333 15.3154 11.6222L12.3917 14.8222C12.2157 15.0148 12.0229 15.0999 11.8134 15.0773C11.6033 15.0554 11.4238 14.963 11.2749 14.8ZM2.88945 19C2.44276 19 2.06024 18.8261 1.74187 18.4782C1.42405 18.1298 1.26514 17.7111 1.26514 17.2222V4.77778C1.26514 4.28889 1.42405 3.87022 1.74187 3.52178C2.06024 3.17393 2.44276 3 2.88945 3H7.76238C7.99249 3 8.18551 3.08504 8.34144 3.25511C8.49683 3.42578 8.57453 3.63704 8.57453 3.88889C8.57453 4.14074 8.49683 4.3517 8.34144 4.52178C8.18551 4.69244 7.99249 4.77778 7.76238 4.77778H2.88945V17.2222H7.76238C7.99249 17.2222 8.18551 17.3076 8.34144 17.4782C8.49683 17.6483 8.57453 17.8593 8.57453 18.1111C8.57453 18.363 8.49683 18.5739 8.34144 18.744C8.18551 18.9147 7.99249 19 7.76238 19H2.88945Z" fill="#259E73" fill-opacity="0.81"/>
</g>
</svg>
