<svg width="36" height="36" viewBox="0 0 36 36" fill="none" xmlns="http://www.w3.org/2000/svg">
<path d="M30.2031 6.90625H23.5469V5.24219C23.5469 4.50663 23.2547 3.80119 22.7346 3.28107C22.2144 2.76095 21.509 2.46875 20.7734 2.46875H15.2266C14.491 2.46875 13.7856 2.76095 13.2654 3.28107C12.7453 3.80119 12.4531 4.50663 12.4531 5.24219V6.90625H5.79688C5.50265 6.90625 5.22048 7.02313 5.01243 7.23118C4.80438 7.43923 4.6875 7.7214 4.6875 8.01562C4.6875 8.30985 4.80438 8.59202 5.01243 8.80007C5.22048 9.00812 5.50265 9.125 5.79688 9.125H6.97559L8.29297 30.2669C8.39143 32.1286 9.81836 33.5312 11.6211 33.5312H24.3789C26.1907 33.5312 27.5892 32.1598 27.707 30.2725L29.0244 9.125H30.2031C30.4973 9.125 30.7795 9.00812 30.9876 8.80007C31.1956 8.59202 31.3125 8.30985 31.3125 8.01562C31.3125 7.7214 31.1956 7.43923 30.9876 7.23118C30.7795 7.02313 30.4973 6.90625 30.2031 6.90625ZM13.602 29.0938H13.5625C13.275 29.0939 12.9987 28.9825 12.7917 28.7829C12.5848 28.5833 12.4634 28.3112 12.4531 28.0239L11.8984 12.4926C11.888 12.1984 11.9948 11.9121 12.1954 11.6966C12.3961 11.4812 12.6741 11.3542 12.9683 11.3438C13.2625 11.3333 13.5489 11.4401 13.7643 11.6407C13.9798 11.8414 14.1067 12.1194 14.1172 12.4136L14.6719 27.9449C14.6772 28.0906 14.6537 28.2359 14.6027 28.3725C14.5518 28.5091 14.4745 28.6344 14.3751 28.7411C14.2757 28.8478 14.1563 28.9338 14.0237 28.9944C13.891 29.0549 13.7477 29.0887 13.602 29.0938ZM19.1094 27.9844C19.1094 28.2786 18.9925 28.5608 18.7844 28.7688C18.5764 28.9769 18.2942 29.0938 18 29.0938C17.7058 29.0938 17.4236 28.9769 17.2156 28.7688C17.0075 28.5608 16.8906 28.2786 16.8906 27.9844V12.4531C16.8906 12.1589 17.0075 11.8767 17.2156 11.6687C17.4236 11.4606 17.7058 11.3438 18 11.3438C18.2942 11.3438 18.5764 11.4606 18.7844 11.6687C18.9925 11.8767 19.1094 12.1589 19.1094 12.4531V27.9844ZM21.3281 6.90625H14.6719V5.24219C14.671 5.16911 14.6848 5.09661 14.7124 5.02893C14.74 4.96126 14.7808 4.89978 14.8325 4.8481C14.8842 4.79643 14.9456 4.7556 15.0133 4.72802C15.081 4.70044 15.1535 4.68666 15.2266 4.6875H20.7734C20.8465 4.68666 20.919 4.70044 20.9867 4.72802C21.0544 4.7556 21.1159 4.79643 21.1675 4.8481C21.2192 4.89978 21.26 4.96126 21.2876 5.02893C21.3152 5.09661 21.329 5.16911 21.3281 5.24219V6.90625ZM23.5469 28.0239C23.5366 28.3112 23.4152 28.5833 23.2083 28.7829C23.0013 28.9825 22.725 29.0939 22.4375 29.0938H22.3973C22.2516 29.0886 22.1084 29.0547 21.9759 28.9942C21.8433 28.9336 21.7239 28.8475 21.6246 28.7408C21.5254 28.6341 21.4481 28.5089 21.3972 28.3723C21.3463 28.2358 21.3228 28.0905 21.3281 27.9449L21.8828 12.4136C21.888 12.2679 21.9218 12.1247 21.9824 11.9921C22.0429 11.8595 22.129 11.7401 22.2357 11.6407C22.3424 11.5414 22.4676 11.464 22.6042 11.4131C22.7407 11.3621 22.886 11.3386 23.0317 11.3438C23.1774 11.3489 23.3206 11.3828 23.4532 11.4433C23.5858 11.5039 23.7052 11.5899 23.8046 11.6966C23.9039 11.8033 23.9813 11.9285 24.0322 12.0651C24.0832 12.2017 24.1068 12.347 24.1016 12.4926L23.5469 28.0239Z" fill="white"/>
</svg>
