<svg width="50" height="50" viewBox="0 0 50 50" fill="none" xmlns="http://www.w3.org/2000/svg">
<path d="M41.8438 9.6875H32.6562V7.39062C32.6562 6.37534 32.2529 5.40164 31.535 4.68373C30.8171 3.96582 29.8434 3.5625 28.8281 3.5625H21.1719C20.1566 3.5625 19.1829 3.96582 18.465 4.68373C17.7471 5.40164 17.3438 6.37534 17.3438 7.39062V9.6875H8.15625C7.75014 9.6875 7.36066 9.84883 7.07349 10.136C6.78633 10.4232 6.625 10.8126 6.625 11.2188C6.625 11.6249 6.78633 12.0143 7.07349 12.3015C7.36066 12.5887 7.75014 12.75 8.15625 12.75H9.7832L11.6016 41.9318C11.7375 44.5014 13.707 46.4375 16.1953 46.4375H33.8047C36.3054 46.4375 38.2357 44.5445 38.3984 41.9395L40.2168 12.75H41.8438C42.2499 12.75 42.6393 12.5887 42.9265 12.3015C43.2137 12.0143 43.375 11.6249 43.375 11.2188C43.375 10.8126 43.2137 10.4232 42.9265 10.136C42.6393 9.84883 42.2499 9.6875 41.8438 9.6875ZM18.9296 40.3125H18.875C18.4782 40.3128 18.0967 40.1589 17.8111 39.8835C17.5254 39.608 17.3579 39.2324 17.3438 38.8358L16.5781 17.3983C16.5637 16.9922 16.7111 16.597 16.988 16.2996C17.265 16.0022 17.6487 15.827 18.0548 15.8125C18.4609 15.798 18.8562 15.9455 19.1536 16.2224C19.451 16.4994 19.6262 16.8831 19.6406 17.2892L20.4062 38.7267C20.4135 38.9278 20.3811 39.1284 20.3108 39.317C20.2405 39.5056 20.1338 39.6784 19.9966 39.8257C19.8595 39.973 19.6946 40.0918 19.5115 40.1753C19.3284 40.2588 19.1307 40.3055 18.9296 40.3125ZM26.5312 38.7812C26.5312 39.1874 26.3699 39.5768 26.0828 39.864C25.7956 40.1512 25.4061 40.3125 25 40.3125C24.5939 40.3125 24.2044 40.1512 23.9172 39.864C23.6301 39.5768 23.4688 39.1874 23.4688 38.7812V17.3438C23.4688 16.9376 23.6301 16.5482 23.9172 16.261C24.2044 15.9738 24.5939 15.8125 25 15.8125C25.4061 15.8125 25.7956 15.9738 26.0828 16.261C26.3699 16.5482 26.5312 16.9376 26.5312 17.3438V38.7812ZM29.5938 9.6875H20.4062V7.39062C20.4051 7.28976 20.4241 7.18968 20.4622 7.09627C20.5002 7.00286 20.5566 6.918 20.6279 6.84667C20.6993 6.77535 20.7841 6.719 20.8775 6.68093C20.9709 6.64286 21.071 6.62385 21.1719 6.625H28.8281C28.929 6.62385 29.0291 6.64286 29.1225 6.68093C29.2159 6.719 29.3008 6.77535 29.3721 6.84667C29.4434 6.918 29.4998 7.00286 29.5378 7.09627C29.5759 7.18968 29.5949 7.28976 29.5938 7.39062V9.6875ZM32.6562 38.8358C32.6421 39.2324 32.4746 39.608 32.1889 39.8835C31.9033 40.1589 31.5218 40.3128 31.125 40.3125H31.0695C30.8684 40.3053 30.6708 40.2586 30.4878 40.1751C30.3048 40.0915 30.1401 39.9726 30.003 39.8254C29.866 39.6781 29.7593 39.5053 29.6891 39.3168C29.6188 39.1282 29.5865 38.9277 29.5938 38.7267L30.3594 17.2892C30.3665 17.0881 30.4132 16.8904 30.4968 16.7074C30.5804 16.5243 30.6992 16.3595 30.8464 16.2224C30.9937 16.0853 31.1665 15.9785 31.355 15.9082C31.5436 15.8379 31.7441 15.8053 31.9452 15.8125C32.1463 15.8197 32.344 15.8664 32.527 15.9499C32.71 16.0335 32.8748 16.1523 33.012 16.2996C33.1491 16.4468 33.2559 16.6196 33.3262 16.8082C33.3965 16.9967 33.429 17.1972 33.4219 17.3983L32.6562 38.8358Z" fill="white"/>
</svg>
