<svg width="15" height="15" viewBox="0 0 15 15" fill="none" xmlns="http://www.w3.org/2000/svg">
<path d="M7.34644 0.1875C3.30769 0.1875 0.0339355 3.46125 0.0339355 7.5C0.0339355 11.5387 3.30769 14.8125 7.34644 14.8125C11.3852 14.8125 14.6589 11.5387 14.6589 7.5C14.6589 3.46125 11.3852 0.1875 7.34644 0.1875ZM4.45202 4.20727L8.14343 6.70336C8.3871 6.87886 8.55188 7.14323 8.60214 7.43928C8.6524 7.73534 8.58409 8.03927 8.41198 8.28535C8.23987 8.53143 7.97781 8.69986 7.68248 8.75421C7.38715 8.80856 7.08229 8.74446 6.83386 8.57578C6.72471 8.49881 6.62958 8.40368 6.55261 8.29453L4.05651 4.60313C4.01809 4.54808 4.00027 4.48127 4.00616 4.41441C4.01206 4.34754 4.04131 4.28488 4.08877 4.23742C4.13624 4.18995 4.1989 4.16071 4.26576 4.15481C4.33263 4.14891 4.39944 4.16673 4.45448 4.20516L4.45202 4.20727ZM7.34644 13.6875C3.93628 13.6875 1.15894 10.9119 1.15894 7.5C1.15604 6.66781 1.32244 5.84373 1.64801 5.07786C1.97359 4.312 2.45154 3.62036 3.0528 3.045C3.09956 2.99838 3.15513 2.96154 3.21628 2.93662C3.27742 2.91171 3.34292 2.89921 3.40894 2.89986C3.47496 2.90051 3.5402 2.9143 3.60084 2.94043C3.66148 2.96655 3.71631 3.00448 3.76214 3.05202C3.80796 3.09955 3.84387 3.15573 3.86777 3.21728C3.89166 3.27883 3.90306 3.34452 3.9013 3.41053C3.89955 3.47653 3.88467 3.54152 3.85754 3.60172C3.83041 3.66191 3.79156 3.7161 3.74327 3.76113C3.23873 4.24405 2.83765 4.82452 2.56442 5.46726C2.29119 6.11001 2.1515 6.8016 2.15386 7.5C2.15386 10.3631 4.48331 12.6926 7.34644 12.6926C10.2096 12.6926 12.539 10.3631 12.539 7.5C12.539 4.80457 10.4746 2.58234 7.8439 2.33203V4.26562C7.8439 4.39756 7.79149 4.52409 7.69819 4.61738C7.6049 4.71067 7.47837 4.76309 7.34644 4.76309C7.2145 4.76309 7.08797 4.71067 6.99468 4.61738C6.90139 4.52409 6.84897 4.39756 6.84897 4.26562V1.80996C6.84897 1.67803 6.90139 1.55149 6.99468 1.4582C7.08797 1.36491 7.2145 1.3125 7.34644 1.3125C10.7583 1.3125 13.5339 4.08984 13.5339 7.5C13.5339 10.9102 10.7583 13.6875 7.34644 13.6875Z" fill="white"/>
</svg>
