<svg width="13" height="12" viewBox="0 0 13 12" fill="none" xmlns="http://www.w3.org/2000/svg">
<path fill-rule="evenodd" clip-rule="evenodd" d="M9.08537 1.81711C9.24961 1.81701 9.40715 1.88221 9.52328 1.99834L10.2011 2.67615C10.3172 2.79228 10.3824 2.94982 10.3823 3.11405C10.3822 3.27829 10.3168 3.43574 10.2006 3.55173L2.52805 11.2054C2.47056 11.2627 2.40235 11.3082 2.3273 11.3392L1.20455 11.803C0.973445 11.8985 0.707601 11.8454 0.530794 11.6686C0.353988 11.4918 0.300974 11.226 0.396436 10.9949L0.860217 9.87213C0.891219 9.79708 0.93669 9.72886 0.994038 9.67138L8.64769 1.99888C8.76368 1.8826 8.92114 1.81721 9.08537 1.81711Z" fill="#373737"/>
<path fill-rule="evenodd" clip-rule="evenodd" d="M10.531 0.232421C10.6624 0.177983 10.8033 0.149963 10.9455 0.149963C11.0878 0.149963 11.2286 0.177983 11.36 0.232421C11.4914 0.286854 11.6108 0.366635 11.7114 0.467213L11.7114 0.467238L11.7327 0.488469C11.9356 0.691566 12.0496 0.966934 12.0496 1.25405C12.0496 1.54116 11.9356 1.81653 11.7327 2.01963L11.4009 2.35138C11.1593 2.59302 10.7675 2.59302 10.5259 2.35138L9.84804 1.67357C9.73197 1.5575 9.66678 1.40006 9.66682 1.23592C9.66685 1.07177 9.73211 0.914361 9.84823 0.79834L10.1796 0.467238C10.1797 0.467194 10.1797 0.467149 10.1797 0.467105L10.1798 0.467027C10.2804 0.366539 10.3997 0.286822 10.531 0.232421Z" fill="#373737"/>
</svg>
