<svg width="14" height="14" viewBox="0 0 14 14" fill="none" xmlns="http://www.w3.org/2000/svg">
<path d="M13.5 3.39971C13.5 2.92232 13.3104 2.46448 12.9728 2.12692C12.6353 1.78935 12.1774 1.59971 11.7 1.59971H11.25V1.16237C11.25 0.920212 11.0638 0.712368 10.8217 0.700274C10.7608 0.697343 10.7 0.706795 10.6429 0.728058C10.5859 0.749321 10.5337 0.781952 10.4896 0.823974C10.4455 0.865996 10.4104 0.916534 10.3864 0.972526C10.3624 1.02852 10.35 1.0888 10.35 1.14971V1.59971H4.05002V1.16237C4.05002 0.920212 3.86384 0.712368 3.62168 0.700274C3.56084 0.697343 3.50003 0.706795 3.44295 0.728058C3.38586 0.749321 3.33369 0.781952 3.28959 0.823974C3.24549 0.865996 3.21038 0.916534 3.18639 0.972526C3.1624 1.02852 3.15003 1.0888 3.15002 1.14971V1.59971H2.70002C2.22263 1.59971 1.7648 1.78935 1.42723 2.12692C1.08967 2.46448 0.900024 2.92232 0.900024 3.39971V3.73721C0.900024 3.76705 0.911877 3.79566 0.932975 3.81676C0.954073 3.83786 0.982688 3.84971 1.01252 3.84971H13.3875C13.4174 3.84971 13.446 3.83786 13.4671 3.81676C13.4882 3.79566 13.5 3.76705 13.5 3.73721V3.39971Z" fill="#F9B022"/>
<path d="M0.900024 11.4997C0.900024 11.9771 1.08967 12.4349 1.42723 12.7725C1.7648 13.1101 2.22263 13.2997 2.70002 13.2997H11.7C12.1774 13.2997 12.6353 13.1101 12.9728 12.7725C13.3104 12.4349 13.5 11.9771 13.5 11.4997V4.86221C13.5 4.83237 13.4882 4.80376 13.4671 4.78266C13.446 4.76156 13.4174 4.74971 13.3875 4.74971H1.01252C0.982688 4.74971 0.954073 4.76156 0.932975 4.78266C0.911877 4.80376 0.900024 4.83237 0.900024 4.86221V11.4997Z" fill="#F9B022"/>
</svg>
