<svg width="12" height="10" viewBox="0 0 12 10" fill="none" xmlns="http://www.w3.org/2000/svg">
<path d="M6.00014 7.38622C5.94079 7.38621 5.88248 7.37071 5.83096 7.34126L2.84673 5.63565C2.8208 5.62068 2.79138 5.6128 2.76144 5.61281C2.7315 5.61282 2.70209 5.62072 2.67617 5.63571C2.65025 5.6507 2.62873 5.67226 2.61379 5.6982C2.59885 5.72415 2.591 5.75358 2.59105 5.78352V7.38622C2.591 7.44706 2.60723 7.50681 2.63807 7.55927C2.6689 7.61172 2.71321 7.65496 2.7664 7.68451L5.83458 9.38906C5.88523 9.41719 5.94221 9.43196 6.00014 9.43196C6.05807 9.43196 6.11505 9.41719 6.16569 9.38906L9.23387 7.68451C9.28706 7.65496 9.33138 7.61172 9.36221 7.55927C9.39305 7.50681 9.40928 7.44706 9.40923 7.38622V5.78352C9.40927 5.75358 9.40143 5.72415 9.38649 5.6982C9.37154 5.67226 9.35003 5.6507 9.32411 5.63571C9.29819 5.62072 9.26878 5.61282 9.23884 5.61281C9.2089 5.6128 9.17948 5.62068 9.15355 5.63565L6.16932 7.34126C6.1178 7.37071 6.05948 7.38621 6.00014 7.38622Z" fill="white"/>
<path d="M11.1121 3.60426C11.1121 3.60426 11.1121 3.60255 11.1121 3.60191C11.1066 3.54788 11.0882 3.49594 11.0586 3.45042C11.0289 3.40491 10.9888 3.36714 10.9416 3.34027L6.16889 0.612993C6.11737 0.583544 6.05905 0.568054 5.99971 0.568054C5.94037 0.568054 5.88206 0.583544 5.83054 0.612993L1.05781 3.34027C1.00565 3.37009 0.962294 3.41317 0.932141 3.46514C0.901989 3.51711 0.886108 3.57613 0.886108 3.63622C0.886108 3.6963 0.901989 3.75532 0.932141 3.80729C0.962294 3.85927 1.00565 3.90235 1.05781 3.93217L5.83054 6.65944C5.88206 6.68889 5.94037 6.70438 5.99971 6.70438C6.05905 6.70438 6.11737 6.68889 6.16889 6.65944L10.368 4.26008C10.3745 4.25633 10.3819 4.25436 10.3894 4.25437C10.3969 4.25438 10.4042 4.25636 10.4107 4.26012C10.4172 4.26388 10.4226 4.26929 10.4263 4.27579C10.43 4.28229 10.432 4.28966 10.432 4.29715V7.37663C10.432 7.56008 10.573 7.71754 10.7565 7.7267C10.8026 7.72892 10.8486 7.72176 10.8919 7.70565C10.9351 7.68954 10.9746 7.66482 11.008 7.63299C11.0415 7.60115 11.068 7.56287 11.0862 7.52045C11.1044 7.47803 11.1138 7.43236 11.1138 7.38622V3.63622C11.1138 3.62554 11.1132 3.61487 11.1121 3.60426Z" fill="white"/>
</svg>
