<svg width="10" height="13" viewBox="0 0 10 13" fill="none" xmlns="http://www.w3.org/2000/svg">
<path fill-rule="evenodd" clip-rule="evenodd" d="M0.700012 4.60311C0.700012 2.20724 2.73689 0.299988 5.20001 0.299988C7.66314 0.299988 9.70001 2.20724 9.70001 4.60311C9.70001 5.9538 8.96973 7.6249 8.16974 9.06931C7.35776 10.5354 6.42266 11.8562 5.92118 12.5334C5.83843 12.6465 5.73024 12.7386 5.60532 12.8022C5.47976 12.8661 5.34088 12.8994 5.20001 12.8994C5.05914 12.8994 4.92026 12.8661 4.79471 12.8022C4.66977 12.7386 4.56156 12.6465 4.47882 12.5334C3.97736 11.8559 3.04225 10.5346 2.23027 9.06835C1.43033 7.62383 0.700012 5.95284 0.700012 4.60311ZM5.20001 1.19999C3.19126 1.19999 1.60001 2.74592 1.60001 4.60311C1.60001 5.70026 2.2197 7.1915 3.0176 8.63233C3.80134 10.0476 4.70912 11.3316 5.20001 11.995C5.69089 11.3319 6.59869 10.0483 7.38243 8.63326C8.1803 7.19268 8.80001 5.70127 8.80001 4.60311C8.80001 2.74592 7.20876 1.19999 5.20001 1.19999Z" fill="#373737"/>
<path fill-rule="evenodd" clip-rule="evenodd" d="M5.20001 3.89999C4.70296 3.89999 4.30001 4.30293 4.30001 4.79999C4.30001 5.29704 4.70296 5.69999 5.20001 5.69999C5.69707 5.69999 6.10001 5.29704 6.10001 4.79999C6.10001 4.30293 5.69707 3.89999 5.20001 3.89999ZM3.40001 4.79999C3.40001 3.80588 4.2059 2.99999 5.20001 2.99999C6.19412 2.99999 7.00001 3.80588 7.00001 4.79999C7.00001 5.7941 6.19412 6.59999 5.20001 6.59999C4.2059 6.59999 3.40001 5.7941 3.40001 4.79999Z" fill="#373737"/>
</svg>
