<svg width="13" height="13" viewBox="0 0 13 13" fill="none" xmlns="http://www.w3.org/2000/svg">
<path fill-rule="evenodd" clip-rule="evenodd" d="M0.349976 6.20001C0.349976 2.97023 2.9702 0.350006 6.19998 0.350006C9.42975 0.350006 12.05 2.97023 12.05 6.20001C12.05 9.42978 9.42975 12.05 6.19998 12.05C2.9702 12.05 0.349976 9.42978 0.349976 6.20001ZM6.19998 1.25001C3.46725 1.25001 1.24998 3.46728 1.24998 6.20001C1.24998 8.93273 3.46725 11.15 6.19998 11.15C8.9327 11.15 11.15 8.93273 11.15 6.20001C11.15 3.46728 8.9327 1.25001 6.19998 1.25001Z" fill="#373737"/>
<path fill-rule="evenodd" clip-rule="evenodd" d="M6.19998 2.15001C6.4485 2.15001 6.64998 2.35148 6.64998 2.60001V6.20001H8.89998C9.1485 6.20001 9.34998 6.40148 9.34998 6.65001C9.34998 6.89853 9.1485 7.10001 8.89998 7.10001H6.19998C5.95145 7.10001 5.74998 6.89853 5.74998 6.65001V2.60001C5.74998 2.35148 5.95145 2.15001 6.19998 2.15001Z" fill="#373737"/>
</svg>
