<svg width="13" height="11" viewBox="0 0 13 11" fill="none" xmlns="http://www.w3.org/2000/svg">
<path d="M1.05347 10.5508C0.964881 10.5203 0.888025 10.4629 0.833624 10.3866C0.779222 10.3103 0.749988 10.219 0.75 10.1253C0.75 8.06933 1.16288 6.42514 1.97766 5.23798C2.96203 3.80361 4.51481 3.0313 6.6 2.93539V0.675264C6.60001 0.587149 6.62589 0.500975 6.67442 0.427432C6.72296 0.35389 6.79202 0.296215 6.87303 0.261562C6.95405 0.22691 7.04345 0.216805 7.13016 0.232501C7.21686 0.248197 7.29705 0.289004 7.36078 0.349858L12.3108 5.07486C12.3548 5.11688 12.3898 5.16737 12.4137 5.2233C12.4376 5.27923 12.45 5.33943 12.45 5.40026C12.45 5.4611 12.4376 5.52129 12.4137 5.57722C12.3898 5.63315 12.3548 5.68365 12.3108 5.72567L7.36078 10.4507C7.29705 10.5115 7.21686 10.5523 7.13016 10.568C7.04345 10.5837 6.95405 10.5736 6.87303 10.539C6.79202 10.5043 6.72296 10.4466 6.67442 10.3731C6.62589 10.2996 6.60001 10.2134 6.6 10.1253V7.88173C5.33437 7.91998 4.37812 8.12501 3.61678 8.51848C2.79412 8.94373 2.19759 9.57908 1.55466 10.4029C1.49698 10.4767 1.41768 10.5307 1.32784 10.5573C1.23799 10.584 1.14207 10.5819 1.05347 10.5514V10.5508Z" fill="white"/>
<path d="M1.16327 10.2713C1.1893 10.2779 1.21671 10.2774 1.24261 10.2697C1.27256 10.2608 1.29899 10.2428 1.31822 10.2182C1.96864 9.38485 2.59759 8.70762 3.47902 8.25198L3.47904 8.25197C4.29446 7.83056 5.29981 7.62089 6.59094 7.58187L6.9 7.57253V7.88173V10.1252C6.9 10.1252 6.9 10.1253 6.9 10.1253C6.90001 10.1546 6.90863 10.1833 6.92481 10.2078C6.94099 10.2324 6.96401 10.2516 6.99101 10.2631C7.01802 10.2747 7.04782 10.2781 7.07672 10.2728C7.10562 10.2676 7.13235 10.254 7.15359 10.2337L7.15364 10.2337L12.1036 5.50873L1.16327 10.2713ZM1.16327 10.2713L1.15116 10.2671C1.12163 10.257 1.09601 10.2378 1.07787 10.2124C1.05974 10.187 1.05 10.1565 1.05 10.1253V10.1253C1.05 8.10504 1.45633 6.52773 2.225 5.40775L2.22501 5.40774C3.14518 4.06691 4.60121 3.32764 6.61378 3.23507L6.9 3.22191V2.93539V0.67529C6.9 0.675282 6.9 0.675273 6.9 0.675264C6.90001 0.645903 6.90863 0.617188 6.92481 0.592679C6.94099 0.568165 6.96401 0.548941 6.99101 0.53739C7.01802 0.525839 7.04782 0.522471 7.07672 0.527703C7.10562 0.532935 7.13235 0.546537 7.15359 0.566822L7.15364 0.566865L12.1036 5.2918L1.16327 10.2713ZM12.1379 5.34128C12.1299 5.32267 12.1183 5.30586 12.1036 5.29186L12.1379 5.34128ZM12.1379 5.34128C12.1458 5.35992 12.15 5.37999 12.15 5.40026M12.1379 5.34128L12.15 5.40026M12.15 5.40026C12.15 5.42054 12.1458 5.44061 12.1379 5.45925M12.15 5.40026L12.1379 5.45925M12.1379 5.45925C12.1299 5.47786 12.1183 5.49467 12.1036 5.50866L12.1379 5.45925Z" stroke="#005567" stroke-opacity="0.5" stroke-width="0.6"/>
</svg>
