<svg width="120" height="120" viewBox="0 0 120 120" fill="none" xmlns="http://www.w3.org/2000/svg">
<path d="M120 59.9314C120 70.7072 117.153 80.8188 112.169 89.5566C101.844 107.658 82.3489 119.863 60 119.863C37.6511 119.863 18.1561 107.658 7.83122 89.5566C2.84722 80.8188 0 70.7072 0 59.9314C0 26.8322 26.8629 0 60 0C93.1371 0 120 26.8322 120 59.9314Z" fill="#259E73"/>
<path d="M56.9318 59.1754V79.2661H62.3863V59.1754C75.936 57.6916 83.4097 55.3723 88.2954 45.2142C75.629 43.6026 67.9622 45.0732 59.3182 53.0461C48.9887 43.878 41.3386 42.9677 26.5909 43.8521C35.3445 53.8947 40.7668 58.8513 56.9318 59.1754Z" fill="white"/>
<path fill-rule="evenodd" clip-rule="evenodd" d="M109.504 93.8055C98.6903 109.542 80.5518 119.863 60 119.863C39.6564 119.863 21.6776 109.75 10.8275 94.2821C24.0086 84.7788 41.4164 79 60.5 79C79.2625 79 96.405 84.5859 109.504 93.8055Z" fill="#263238"/>
<ellipse cx="36.1364" cy="96.7075" rx="6.13636" ry="6.12935" fill="#D9D9D9"/>
<ellipse cx="36.1364" cy="96.7076" rx="4.09091" ry="4.08623" fill="#263238"/>
<ellipse cx="83.1818" cy="96.7075" rx="6.13636" ry="6.12935" fill="#D9D9D9"/>
<ellipse cx="83.1818" cy="96.7076" rx="4.09091" ry="4.08623" fill="#263238"/>
<path fill-rule="evenodd" clip-rule="evenodd" d="M78 117.115C72.3547 118.9 66.3472 119.863 60.1162 119.863C53.7996 119.863 47.7126 118.874 42 117.041L59.9448 105L78 117.115Z" fill="#F2C31C"/>
<path fill-rule="evenodd" clip-rule="evenodd" d="M60 119.862V105.05L60.0737 105L78 117.115C72.3951 118.9 66.4304 119.863 60.2438 119.863C60.1625 119.863 60.0812 119.863 60 119.862Z" fill="#FFBB12"/>
</svg>
