<svg width="2370" height="1244" viewBox="0 0 2370 1244" fill="none" xmlns="http://www.w3.org/2000/svg">
<g clip-path="url(#clip0_946_1987)">
<rect width="2370" height="1244" fill="#F1F1F1"/>
<ellipse cx="295.092" cy="1000.9" rx="350.805" ry="232.3" transform="rotate(4.03651 295.092 1000.9)" fill="url(#paint0_linear_946_1987)"/>
<ellipse cx="435" cy="820" rx="320" ry="382" fill="url(#paint1_linear_946_1987)"/>
<ellipse cx="922.5" cy="1216" rx="352.5" ry="157" fill="url(#paint2_linear_946_1987)"/>
<path d="M192.663 866.383C191.418 866.156 123.412 853.997 106.945 898.686C82.307 965.548 196.851 1006.38 303.497 1007.61C379.167 1008.47 375.415 1149.6 413.652 1109.35C442.039 1079.47 472.506 908.426 480.428 849.887C488.35 791.348 513.275 631.47 447.234 641.185C408.856 646.83 398.744 674.248 398.744 674.248C398.744 674.248 390.406 521.813 312.328 553.946C268.935 571.806 271.459 624.304 271.459 624.304C271.459 624.304 148.873 489.086 106.311 563.604C67.6341 631.321 171.938 725.379 171.938 725.379C171.938 725.379 88.2737 708.428 72.6196 763.999C51.1674 840.152 190.867 866.053 192.663 866.383Z" fill="url(#paint3_linear_946_1987)"/>
<path d="M1050.1 745.64C1120.81 738.104 1190.46 660.435 1231.15 726.341C1271.84 792.248 898.153 957.835 898.153 1119.34C898.154 1155.27 784.434 639.823 817.653 602.313C850.873 564.802 910.57 658.957 910.57 658.957C910.57 658.957 891.272 402.063 954.708 440.984C989.964 462.615 1002.55 573.323 1002.55 573.323C1002.55 573.323 1057.22 378.915 1115.05 424.908C1165.91 465.356 1074.8 623.679 1074.8 623.679C1074.8 623.679 1216.81 554.469 1222.84 602.313C1231.17 668.301 1050.1 745.64 1050.1 745.64Z" fill="url(#paint4_linear_946_1987)"/>
<path d="M465.308 1101.67C376.311 950.294 385.115 861.571 402.968 703.18C477.493 858.233 495.365 945.433 465.308 1101.67Z" fill="url(#paint5_linear_946_1987)"/>
<path d="M462.04 1110.45C369.796 1054.01 345.04 1003.36 301.87 912.329C388.36 974.937 425.443 1017.07 462.04 1110.45Z" fill="url(#paint6_linear_946_1987)"/>
<path d="M474.58 1105.33C377.586 1106.8 332.009 1080.27 251.038 1031.95C347.314 1037.92 397.014 1052.07 474.58 1105.33Z" fill="url(#paint7_linear_946_1987)"/>
<path d="M471.917 1102.86C494.715 1004.66 536.593 967.927 612.354 903.075C581.22 997.978 552.467 1043.14 471.917 1102.86Z" fill="url(#paint8_linear_946_1987)"/>
<path d="M464.753 1102.47C510.623 1048.04 549.761 1036.22 620.062 1015.8C569.733 1066.08 536.597 1086.44 464.753 1102.47Z" fill="url(#paint9_linear_946_1987)"/>
<path d="M462.331 1107.81C440.446 972.605 473.978 909.702 535.463 797.979C545.231 932.007 532.444 1000.94 462.331 1107.81Z" fill="url(#paint10_linear_946_1987)"/>
<path d="M470.97 1114.21C368.614 1006.09 351.569 926.618 322.645 784.187C415.77 899.331 451.208 970.432 470.97 1114.21Z" fill="url(#paint11_linear_946_1987)"/>
<path d="M298.993 1022.48C257.732 1048.06 226.173 1046.69 169.573 1043.66C213.85 1021.92 241.659 1016.15 298.993 1022.48Z" fill="url(#paint12_linear_946_1987)"/>
<path d="M271.863 1013.01C237.184 1023.84 213.285 1018.48 170.493 1008.5C206.991 1000.6 228.925 1000.78 271.863 1013.01Z" fill="url(#paint13_linear_946_1987)"/>
<path d="M284.362 1007.47C254.095 973.058 230.755 961.96 188.892 942.464C221.423 975.234 241.926 990.088 284.362 1007.47Z" fill="url(#paint14_linear_946_1987)"/>
<path d="M300.457 1007.08C281.915 966.72 256.587 949.349 210.866 918.559C233.804 958.186 252.406 977.992 300.457 1007.08Z" fill="url(#paint15_linear_946_1987)"/>
<path d="M327.744 1031.42C292.464 1071.88 260.226 1077.45 202.268 1086.76C241.56 1050.27 268.215 1036.9 327.744 1031.42Z" fill="url(#paint16_linear_946_1987)"/>
<path d="M327.619 1017.95C321.659 971.457 299.501 949.214 259.29 909.68C270.487 955.939 284.145 979.979 327.619 1017.95Z" fill="url(#paint17_linear_946_1987)"/>
<path d="M354.471 1042.45C326.692 1080.65 298.584 1089.05 247.992 1103.56C279.673 1068.25 302.153 1053.9 354.471 1042.45Z" fill="url(#paint18_linear_946_1987)"/>
<path d="M354.319 1026.3C353 985.604 335.567 963.927 303.86 925.306C309.757 966.399 319.643 988.651 354.319 1026.3Z" fill="url(#paint19_linear_946_1987)"/>
<path d="M398.96 1048.75C362.709 1081.41 333.292 1092.87 284.276 1119.25C317.822 1078.36 341.986 1061.8 398.96 1048.75Z" fill="url(#paint20_linear_946_1987)"/>
<path d="M392.343 1047.98C393.169 1002.57 374.496 978.696 340.49 936.18C344.871 981.948 354.888 1006.6 392.343 1047.98Z" fill="url(#paint21_linear_946_1987)"/>
<path d="M411.574 1053.64C380.547 1048.54 343.034 1127.14 343.034 1127.14C343.034 1127.14 382.259 1088.49 411.574 1053.64Z" fill="url(#paint22_linear_946_1987)"/>
<path d="M409.818 1055.74C382.859 1034.53 397.432 980.919 397.432 980.919C397.432 980.919 406.498 1021.55 409.818 1055.74Z" fill="url(#paint23_linear_946_1987)"/>
<path d="M421.689 1058.34C365.319 1056.47 292.581 1035.29 213.363 987.718C301.507 996.824 361.044 1021.25 421.689 1058.34Z" fill="url(#paint24_radial_946_1987)"/>
<path d="M333.483 1030.62C412.483 1092.12 425.983 1148.62 425.983 1148.62L438.483 1137.12C438.483 1137.12 464.691 1060.93 434.483 967.623C411.983 898.123 341 849.267 284 887.267C227 925.267 290.841 997.427 333.483 1030.62Z" fill="url(#paint25_linear_946_1987)"/>
<path d="M330.724 1119.19C416.482 1133.62 419.207 1155.5 419.207 1155.5L434.113 1142.28C434.113 1142.28 407.983 1104.21 332.133 1055.13C296.983 1032.38 245.738 1032.78 240.46 1076.49C235.182 1120.2 282.312 1111.04 330.724 1119.19Z" fill="url(#paint26_linear_946_1987)"/>
<path d="M503.451 1087.27C440.853 1128.19 444.004 1149.8 444.004 1149.8L429.348 1142C429.348 1142 440.342 1097.62 486.993 1027.01C508.612 994.286 548.182 978.385 562.738 1018.14C577.294 1057.89 538.789 1064.17 503.451 1087.27Z" fill="url(#paint27_linear_946_1987)"/>
<path d="M447.5 1161.27H417.5C403.528 1144.26 391.992 1141.92 368 1136.27C386.979 1135.43 397.574 1134.61 417.5 1140.77C424.488 1116.15 419.631 1100.96 413.5 1074.27C431.927 1099.53 442.636 1113.65 444.5 1140.77C458.437 1122.85 469.781 1118.97 491 1113.77C465.865 1135.3 455.844 1143.47 447.5 1161.27Z" fill="url(#paint28_linear_946_1987)"/>
<path d="M1043.18 925.547C1107.39 940.742 1145.09 920.343 1212.4 882.901C1146.6 875.332 1109.58 882.631 1043.18 925.547Z" fill="url(#paint29_linear_946_1987)"/>
<path d="M1071.07 895.334C1119.22 891.791 1145.42 869.739 1192.11 829.672C1143.34 838.751 1116.71 851.734 1071.07 895.334Z" fill="url(#paint30_linear_946_1987)"/>
<path d="M1052.82 894.101C1070.93 823.937 1093.31 793.435 1133.69 739.353C1111.92 808.325 1095.04 842.925 1052.82 894.101Z" fill="url(#paint31_linear_946_1987)"/>
<path d="M1033 902.84C1033.58 830.371 1054.97 789.125 1093.88 715.535C1087.54 789.43 1075.68 830.503 1033 902.84Z" fill="url(#paint32_linear_946_1987)"/>
<path d="M1013.02 955.876C1078.06 997.297 1120.38 987.131 1196.07 967.776C1128.3 934.746 1088.54 929.752 1013.02 955.876Z" fill="url(#paint33_linear_946_1987)"/>
<path d="M1005.83 935.211C987.741 860.655 1002.61 813.795 1030.04 730.029C1041.62 807.26 1038.09 851.94 1005.83 935.211Z" fill="url(#paint34_linear_946_1987)"/>
<path d="M986.473 988.239C1041.14 1030.55 1079.97 1027.1 1149.52 1019.96C1091.67 984.328 1056.46 975.427 986.473 988.239Z" fill="url(#paint35_linear_946_1987)"/>
<path d="M977.854 963.458C957.271 900.458 966.691 857.203 984.262 779.762C999.484 846.021 999.572 885.779 977.854 963.458Z" fill="url(#paint36_linear_946_1987)"/>
<path d="M935.704 1023.66C997.682 1052.6 1039.77 1053.06 1113.87 1064.99C1050.7 1021.91 1012.23 1010.59 935.704 1023.66Z" fill="url(#paint37_linear_946_1987)"/>
<path d="M943.349 1018.65C917.58 949.681 927.315 902.355 945.564 817.625C965.182 890.154 966.421 933.665 943.349 1018.65Z" fill="url(#paint38_linear_946_1987)"/>
<path d="M923.005 1038.46C958.026 1012.67 1046.59 1111.13 1046.59 1111.13C1046.59 1111.13 977.724 1074.76 923.005 1038.46Z" fill="url(#paint39_linear_946_1987)"/>
<path d="M926.289 1040.65C947.568 992.582 900.583 919.051 900.583 919.051C900.583 919.051 911.694 986.447 926.289 1040.65Z" fill="url(#paint40_linear_946_1987)"/>
<path d="M913.244 1051.51C980.903 1015.98 1057.97 941.406 1128.55 822.742C1026.12 887.766 966.906 959.63 913.244 1051.51Z" fill="url(#paint41_radial_946_1987)"/>
<path d="M835.08 1056.41C954.04 909.424 969.129 802.658 994.153 611.335C887.209 767.521 848.609 863.486 835.08 1056.41Z" fill="url(#paint42_linear_946_1987)"/>
<path d="M835.733 1067.8C933.015 1032.96 968.318 982.078 1030.58 890.18C936.86 934.177 892.715 970.931 835.733 1067.8Z" fill="url(#paint43_linear_946_1987)"/>
<path d="M825.822 1057.56C912.361 1092.08 960.076 1076.45 1045.15 1047.3C957.331 1021.73 909.126 1021.49 825.822 1057.56Z" fill="url(#paint44_linear_946_1987)"/>
<path d="M828.849 1055.57C833.851 932.993 805.837 875.861 754.742 774.383C758.062 895.928 772.132 958.481 828.849 1055.57Z" fill="url(#paint45_linear_946_1987)"/>
<path d="M835.369 1057.54C808.36 978.363 776.35 951.294 718.638 903.646C750.719 979.473 775.14 1014.49 835.369 1057.54Z" fill="url(#paint46_linear_946_1987)"/>
<path d="M836.159 1064.6C890.787 913.84 877.029 828.919 850.866 677.436C807.4 830.921 801.005 915.883 836.159 1064.6Z" fill="url(#paint47_linear_946_1987)"/>
<path d="M826.758 1069.17C946.487 977.292 982.343 890.093 1045.15 733.254C931.878 836.465 881.706 907.659 826.758 1069.17Z" fill="url(#paint48_linear_946_1987)"/>
<path d="M1008.56 952.588C923.505 1045.75 908.969 1131.33 908.969 1131.33L895.51 1113.91C895.51 1113.91 867.291 998.501 899.817 857.155C924.043 751.877 1000.47 677.869 1061.84 735.431C1123.22 792.994 1054.48 902.303 1008.56 952.588Z" fill="url(#paint49_linear_946_1987)"/>
<path d="M1036.74 1074.19C926.195 1102.44 922.683 1145.26 922.683 1145.26L903.468 1119.38C903.468 1119.38 912.382 1086.69 1010.15 990.631C1055.46 946.115 1146.03 932.927 1153.09 990.631C1160.15 1048.33 1099.14 1058.24 1036.74 1074.19Z" fill="url(#paint50_linear_946_1987)"/>
<path d="M812.287 1035.3C889.872 1099.86 885.742 1134.47 885.742 1134.47L904.071 1121.78C904.071 1121.78 890.799 1050.94 833.361 938.641C806.742 886.6 748.291 893.835 739.094 925.541C729.898 957.248 768.49 998.847 812.287 1035.3Z" fill="url(#paint51_linear_946_1987)"/>
<path d="M886.213 1156.55H924.883C942.893 1123.27 957.764 1118.69 988.69 1107.62C964.226 1105.98 950.569 1104.38 924.883 1116.43C915.876 1068.25 922.136 1038.52 930.039 986.278C906.287 1035.71 892.483 1063.35 890.08 1116.43C872.115 1081.36 857.492 1073.76 830.14 1063.58C862.54 1105.73 875.457 1121.72 886.213 1156.55Z" fill="url(#paint52_linear_946_1987)"/>
</g>
<defs>
<linearGradient id="paint0_linear_946_1987" x1="32.8928" y1="834.386" x2="352.656" y2="1217.22" gradientUnits="userSpaceOnUse">
<stop stop-color="#259E73"/>
<stop offset="1" stop-color="#85C400" stop-opacity="0"/>
</linearGradient>
<linearGradient id="paint1_linear_946_1987" x1="285.857" y1="212" x2="841.203" y2="846.434" gradientUnits="userSpaceOnUse">
<stop stop-color="#259E73"/>
<stop offset="0.907533" stop-color="#259E73" stop-opacity="0"/>
</linearGradient>
<linearGradient id="paint2_linear_946_1987" x1="1098" y1="989.021" x2="904.846" y2="1332.59" gradientUnits="userSpaceOnUse">
<stop stop-color="#259E73" stop-opacity="0.83"/>
<stop offset="1" stop-color="#85C400" stop-opacity="0"/>
</linearGradient>
<linearGradient id="paint3_linear_946_1987" x1="91.4216" y1="727.512" x2="359.438" y2="960.572" gradientUnits="userSpaceOnUse">
<stop stop-color="#00935F"/>
<stop offset="1" stop-color="#B5D108"/>
</linearGradient>
<linearGradient id="paint4_linear_946_1987" x1="1120.97" y1="535.989" x2="1019.35" y2="851.436" gradientUnits="userSpaceOnUse">
<stop offset="0.144955" stop-color="#259E73"/>
<stop offset="1" stop-color="#B3D000"/>
</linearGradient>
<linearGradient id="paint5_linear_946_1987" x1="391.58" y1="742.582" x2="451.804" y2="1082.65" gradientUnits="userSpaceOnUse">
<stop stop-color="#ABE700"/>
<stop offset="0.284375" stop-color="#259E73"/>
<stop offset="1" stop-color="#037149"/>
</linearGradient>
<linearGradient id="paint6_linear_946_1987" x1="309.269" y1="936.976" x2="455.741" y2="1098.21" gradientUnits="userSpaceOnUse">
<stop stop-color="#ABE700"/>
<stop offset="0.284375" stop-color="#259E73"/>
<stop offset="1" stop-color="#037149"/>
</linearGradient>
<linearGradient id="paint7_linear_946_1987" x1="269.896" y1="1047.09" x2="466.267" y2="1083.11" gradientUnits="userSpaceOnUse">
<stop stop-color="#ABE700"/>
<stop offset="0.284375" stop-color="#259E73"/>
<stop offset="1" stop-color="#037149"/>
</linearGradient>
<linearGradient id="paint8_linear_946_1987" x1="590.258" y1="916.836" x2="500.539" y2="1102.69" gradientUnits="userSpaceOnUse">
<stop stop-color="#ABE700"/>
<stop offset="0.284375" stop-color="#259E73"/>
<stop offset="1" stop-color="#037149"/>
</linearGradient>
<linearGradient id="paint9_linear_946_1987" x1="601.178" y1="1018.59" x2="492.087" y2="1118.85" gradientUnits="userSpaceOnUse">
<stop stop-color="#ABE700"/>
<stop offset="0.284375" stop-color="#259E73"/>
<stop offset="1" stop-color="#037149"/>
</linearGradient>
<linearGradient id="paint10_linear_946_1987" x1="514.886" y1="823.909" x2="469.48" y2="1092.17" gradientUnits="userSpaceOnUse">
<stop stop-color="#ABE700"/>
<stop offset="0.284375" stop-color="#259E73"/>
<stop offset="1" stop-color="#037149"/>
</linearGradient>
<linearGradient id="paint11_linear_946_1987" x1="324.947" y1="821.452" x2="489.378" y2="1080.34" gradientUnits="userSpaceOnUse">
<stop stop-color="#ABE700"/>
<stop offset="0.284375" stop-color="#259E73"/>
<stop offset="1" stop-color="#037149"/>
</linearGradient>
<linearGradient id="paint12_linear_946_1987" x1="184.494" y1="1046.27" x2="268.562" y2="988.908" gradientUnits="userSpaceOnUse">
<stop stop-color="#ABE700"/>
<stop offset="0.425" stop-color="#259E73"/>
<stop offset="1" stop-color="#037149"/>
</linearGradient>
<linearGradient id="paint13_linear_946_1987" x1="181.545" y1="1012.32" x2="247.835" y2="977.309" gradientUnits="userSpaceOnUse">
<stop stop-color="#ABE700"/>
<stop offset="0.425" stop-color="#259E73"/>
<stop offset="1" stop-color="#037149"/>
</linearGradient>
<linearGradient id="paint14_linear_946_1987" x1="199.944" y1="946.281" x2="264.513" y2="1017.53" gradientUnits="userSpaceOnUse">
<stop stop-color="#ABE700"/>
<stop offset="0.425" stop-color="#259E73"/>
<stop offset="1" stop-color="#037149"/>
</linearGradient>
<linearGradient id="paint15_linear_946_1987" x1="223.887" y1="925.503" x2="244.779" y2="1014.43" gradientUnits="userSpaceOnUse">
<stop stop-color="#ABE700"/>
<stop offset="0.425" stop-color="#259E73"/>
<stop offset="1" stop-color="#037149"/>
</linearGradient>
<linearGradient id="paint16_linear_946_1987" x1="218.003" y1="1086.51" x2="301.436" y2="1012.15" gradientUnits="userSpaceOnUse">
<stop stop-color="#ABE700"/>
<stop offset="0.425" stop-color="#259E73"/>
<stop offset="1" stop-color="#037149"/>
</linearGradient>
<linearGradient id="paint17_linear_946_1987" x1="271.419" y1="918.944" x2="281.713" y2="1016.75" gradientUnits="userSpaceOnUse">
<stop stop-color="#ABE700"/>
<stop offset="0.425" stop-color="#259E73"/>
<stop offset="1" stop-color="#037149"/>
</linearGradient>
<linearGradient id="paint18_linear_946_1987" x1="261.925" y1="1101.54" x2="325.761" y2="1026.07" gradientUnits="userSpaceOnUse">
<stop stop-color="#ABE700"/>
<stop offset="0.425" stop-color="#259E73"/>
<stop offset="1" stop-color="#037149"/>
</linearGradient>
<linearGradient id="paint19_linear_946_1987" x1="313.646" y1="934.665" x2="311.345" y2="1019.93" gradientUnits="userSpaceOnUse">
<stop stop-color="#ABE700"/>
<stop offset="0.425" stop-color="#259E73"/>
<stop offset="1" stop-color="#037149"/>
</linearGradient>
<linearGradient id="paint20_linear_946_1987" x1="299.484" y1="1116.97" x2="372.21" y2="1034.2" gradientUnits="userSpaceOnUse">
<stop stop-color="#ABE700"/>
<stop offset="0.425" stop-color="#259E73"/>
<stop offset="1" stop-color="#037149"/>
</linearGradient>
<linearGradient id="paint21_linear_946_1987" x1="351.132" y1="946.443" x2="350.21" y2="1041.75" gradientUnits="userSpaceOnUse">
<stop stop-color="#ABE700"/>
<stop offset="0.425" stop-color="#259E73"/>
<stop offset="1" stop-color="#037149"/>
</linearGradient>
<linearGradient id="paint22_linear_946_1987" x1="356.024" y1="1101.11" x2="394.015" y2="1072.56" gradientUnits="userSpaceOnUse">
<stop stop-color="#63C700"/>
<stop offset="1" stop-color="#259E73"/>
</linearGradient>
<linearGradient id="paint23_linear_946_1987" x1="392.771" y1="1002.84" x2="402.627" y2="1037.66" gradientUnits="userSpaceOnUse">
<stop stop-color="#63C700"/>
<stop offset="1" stop-color="#259E73"/>
</linearGradient>
<radialGradient id="paint24_radial_946_1987" cx="0" cy="0" r="1" gradientUnits="userSpaceOnUse" gradientTransform="translate(320.611 1019.58) rotate(95.5798) scale(128.68 53.6941)">
<stop stop-color="#5ED600"/>
<stop offset="0.727083" stop-color="#259E73"/>
<stop offset="0.997917" stop-color="#008C5A"/>
</radialGradient>
<linearGradient id="paint25_linear_946_1987" x1="385.483" y1="888.623" x2="400.483" y2="1099.12" gradientUnits="userSpaceOnUse">
<stop stop-color="#218E68"/>
<stop offset="0.164583" stop-color="#259E73"/>
<stop offset="1" stop-color="#A3CC00"/>
</linearGradient>
<linearGradient id="paint26_linear_946_1987" x1="280.983" y1="1046.62" x2="436.482" y2="1166.62" gradientUnits="userSpaceOnUse">
<stop stop-color="#007C50"/>
<stop offset="0.388821" stop-color="#259E73"/>
<stop offset="1" stop-color="#C3D300"/>
</linearGradient>
<linearGradient id="paint27_linear_946_1987" x1="524.355" y1="1002.7" x2="406.234" y2="1142.98" gradientUnits="userSpaceOnUse">
<stop stop-color="#259E73"/>
<stop offset="1" stop-color="#C3D300"/>
</linearGradient>
<linearGradient id="paint28_linear_946_1987" x1="429.5" y1="1074.27" x2="429.5" y2="1161.27" gradientUnits="userSpaceOnUse">
<stop offset="0.586458" stop-color="#259E73"/>
<stop offset="1" stop-color="#27DC9C"/>
</linearGradient>
<linearGradient id="paint29_linear_946_1987" x1="1195.65" y1="895.554" x2="1059.17" y2="875.267" gradientUnits="userSpaceOnUse">
<stop stop-color="#ABE700"/>
<stop offset="0.665275" stop-color="#259E73"/>
<stop offset="1" stop-color="#037149"/>
</linearGradient>
<linearGradient id="paint30_linear_946_1987" x1="1180.72" y1="841.915" x2="1080.35" y2="836.547" gradientUnits="userSpaceOnUse">
<stop stop-color="#ABE700"/>
<stop offset="0.665275" stop-color="#259E73"/>
<stop offset="1" stop-color="#037149"/>
</linearGradient>
<linearGradient id="paint31_linear_946_1987" x1="1122.3" y1="751.597" x2="1058.67" y2="886.778" gradientUnits="userSpaceOnUse">
<stop stop-color="#ABE700"/>
<stop offset="0.665275" stop-color="#259E73"/>
<stop offset="1" stop-color="#037149"/>
</linearGradient>
<linearGradient id="paint32_linear_946_1987" x1="1081.8" y1="733.701" x2="1106.02" y2="881.613" gradientUnits="userSpaceOnUse">
<stop stop-color="#ABE700"/>
<stop offset="0.665275" stop-color="#259E73"/>
<stop offset="1" stop-color="#037149"/>
</linearGradient>
<linearGradient id="paint33_linear_946_1987" x1="1176.76" y1="976.515" x2="1027.71" y2="937.128" gradientUnits="userSpaceOnUse">
<stop stop-color="#ABE700"/>
<stop offset="0.665275" stop-color="#259E73"/>
<stop offset="1" stop-color="#037149"/>
</linearGradient>
<linearGradient id="paint34_linear_946_1987" x1="1020.32" y1="751.227" x2="1070.37" y2="903.715" gradientUnits="userSpaceOnUse">
<stop stop-color="#ABE700"/>
<stop offset="0.665275" stop-color="#259E73"/>
<stop offset="1" stop-color="#037149"/>
</linearGradient>
<linearGradient id="paint35_linear_946_1987" x1="1131.44" y1="1024.95" x2="1001.98" y2="972.622" gradientUnits="userSpaceOnUse">
<stop stop-color="#ABE700"/>
<stop offset="0.665275" stop-color="#259E73"/>
<stop offset="1" stop-color="#037149"/>
</linearGradient>
<linearGradient id="paint36_linear_946_1987" x1="977.443" y1="799.747" x2="1040.39" y2="921.762" gradientUnits="userSpaceOnUse">
<stop stop-color="#ABE700"/>
<stop offset="0.665275" stop-color="#259E73"/>
<stop offset="1" stop-color="#037149"/>
</linearGradient>
<linearGradient id="paint37_linear_946_1987" x1="1094.1" y1="1070.33" x2="949.303" y2="1014.67" gradientUnits="userSpaceOnUse">
<stop stop-color="#ABE700"/>
<stop offset="0.665275" stop-color="#259E73"/>
<stop offset="1" stop-color="#037149"/>
</linearGradient>
<linearGradient id="paint38_linear_946_1987" x1="938.195" y1="839.489" x2="1005.86" y2="977.561" gradientUnits="userSpaceOnUse">
<stop stop-color="#ABE700"/>
<stop offset="0.665275" stop-color="#259E73"/>
<stop offset="1" stop-color="#037149"/>
</linearGradient>
<linearGradient id="paint39_linear_946_1987" x1="1016.57" y1="1078.85" x2="952.9" y2="1066.85" gradientUnits="userSpaceOnUse">
<stop stop-color="#63C700"/>
<stop offset="1" stop-color="#259E73"/>
</linearGradient>
<linearGradient id="paint40_linear_946_1987" x1="918.212" y1="949.864" x2="924.533" y2="1008.91" gradientUnits="userSpaceOnUse">
<stop stop-color="#63C700"/>
<stop offset="1" stop-color="#259E73"/>
</linearGradient>
<radialGradient id="paint41_radial_946_1987" cx="0" cy="0" r="1" gradientUnits="userSpaceOnUse" gradientTransform="translate(1015.25 933.632) rotate(65.7205) scale(206.896 72.7747)">
<stop stop-color="#5ED600"/>
<stop offset="0.727083" stop-color="#259E73"/>
<stop offset="0.997917" stop-color="#008C5A"/>
</radialGradient>
<linearGradient id="paint42_linear_946_1987" x1="994.153" y1="661.278" x2="781.243" y2="993.288" gradientUnits="userSpaceOnUse">
<stop stop-color="#ABE700"/>
<stop offset="0.665275" stop-color="#259E73"/>
<stop offset="1" stop-color="#037149"/>
</linearGradient>
<linearGradient id="paint43_linear_946_1987" x1="1017.57" y1="916.511" x2="822.371" y2="1008.6" gradientUnits="userSpaceOnUse">
<stop stop-color="#ABE700"/>
<stop offset="0.665275" stop-color="#259E73"/>
<stop offset="1" stop-color="#037149"/>
</linearGradient>
<linearGradient id="paint44_linear_946_1987" x1="1024.33" y1="1058.64" x2="838.262" y2="1044.34" gradientUnits="userSpaceOnUse">
<stop stop-color="#ABE700"/>
<stop offset="0.665275" stop-color="#259E73"/>
<stop offset="1" stop-color="#037149"/>
</linearGradient>
<linearGradient id="paint45_linear_946_1987" x1="770.978" y1="797.95" x2="824.894" y2="1040.89" gradientUnits="userSpaceOnUse">
<stop stop-color="#ABE700"/>
<stop offset="0.665275" stop-color="#259E73"/>
<stop offset="1" stop-color="#037149"/>
</linearGradient>
<linearGradient id="paint46_linear_946_1987" x1="734.838" y1="913.296" x2="837.647" y2="1042.85" gradientUnits="userSpaceOnUse">
<stop stop-color="#ABE700"/>
<stop offset="0.665275" stop-color="#259E73"/>
<stop offset="1" stop-color="#037149"/>
</linearGradient>
<linearGradient id="paint47_linear_946_1987" x1="862.59" y1="714.727" x2="813.972" y2="1040.94" gradientUnits="userSpaceOnUse">
<stop stop-color="#ABE700"/>
<stop offset="0.665275" stop-color="#259E73"/>
<stop offset="1" stop-color="#037149"/>
</linearGradient>
<linearGradient id="paint48_linear_946_1987" x1="1033.44" y1="776.069" x2="771.616" y2="953.261" gradientUnits="userSpaceOnUse">
<stop stop-color="#ABE700"/>
<stop offset="0.665275" stop-color="#259E73"/>
<stop offset="1" stop-color="#037149"/>
</linearGradient>
<linearGradient id="paint49_linear_946_1987" x1="952.576" y1="737.486" x2="920.766" y2="1054.78" gradientUnits="userSpaceOnUse">
<stop stop-color="#008354"/>
<stop offset="0.398958" stop-color="#259E73"/>
<stop offset="1" stop-color="#A3CC00"/>
</linearGradient>
<linearGradient id="paint50_linear_946_1987" x1="1100.86" y1="932.176" x2="846.704" y2="1061.36" gradientUnits="userSpaceOnUse">
<stop stop-color="#007C50"/>
<stop offset="0.388821" stop-color="#259E73"/>
<stop offset="1" stop-color="#C3D300"/>
</linearGradient>
<linearGradient id="paint51_linear_946_1987" x1="787.053" y1="900.29" x2="976.948" y2="1075.12" gradientUnits="userSpaceOnUse">
<stop stop-color="#259E73"/>
<stop offset="1" stop-color="#C3D300"/>
</linearGradient>
<linearGradient id="paint52_linear_946_1987" x1="909.415" y1="986.278" x2="909.415" y2="1156.55" gradientUnits="userSpaceOnUse">
<stop offset="0.586458" stop-color="#259E73"/>
<stop offset="1" stop-color="#27DC9C"/>
</linearGradient>
<clipPath id="clip0_946_1987">
<rect width="2370" height="1244" fill="white"/>
</clipPath>
</defs>
</svg>
