<svg width="40" height="40" viewBox="0 0 40 40" fill="none" xmlns="http://www.w3.org/2000/svg">
    <path fill-rule="evenodd" clip-rule="evenodd"
        d="M24 0H16V1.66667C16 3.32352 14.6569 4.66667 13 4.66667C11.3431 4.66667 10 3.32352 10 1.66667V0H4C1.33333 0 -4.06894e-06 1.33333 0 4V36C0 38.6667 1.33333 40 4 40H32H36C38.6667 40 40 38.6667 40 36V32V4C40 1.33333 38.6667 0 36 0H30V1.66667C30 3.32352 28.6569 4.66667 27 4.66667C25.3431 4.66667 24 3.32352 24 1.66667V0Z"
        fill="#F9B022" />
    <path
        d="M22.6333 15.3333L26.6999 9.99998H12.7666L31.1666 33.2666C31.4999 33.7333 31.3999 34.3333 31.2333 34.6666C31.0666 35 30.5666 35.3333 30.0333 35.3333H10.0333C9.49994 35.3333 9.03327 35.0666 8.79994 34.6666C8.56661 34.2666 8.63328 33.7333 8.83328 33.4L15.0999 24.9333C15.4999 24.5333 16.3999 24.3333 16.9666 24.8C17.5333 25.2666 17.5666 26.2 17.2333 26.6L12.6999 32.6666H27.2999L8.89994 9.39998C8.56661 8.93331 8.66661 8.33331 8.83328 7.99998C8.99994 7.66665 9.36661 7.33331 9.89995 7.33331H29.4999C30.0333 7.33331 30.3992 7.66665 30.5666 7.99998C30.734 8.33331 30.8333 8.99998 30.4999 9.39998L24.6999 17.0666C24.2333 17.5333 23.2999 17.5333 22.8333 17.0666C22.3666 16.6 22.2815 15.8666 22.6333 15.3333Z"
        fill="black" />
</svg>