<svg width="19" height="19" viewBox="0 0 19 19" fill="none" xmlns="http://www.w3.org/2000/svg">
<g clip-path="url(#clip0_480_839)">
<path d="M8.05629 3.10174C6.78609 2.49529 5.0107 2.19822 2.63379 2.18767C2.40962 2.18463 2.18985 2.25 2.00379 2.37506C1.85107 2.47829 1.72605 2.61746 1.63974 2.78034C1.55342 2.94322 1.50846 3.12482 1.50879 3.30916V13.3674C1.50879 14.0473 1.99254 14.5602 2.63379 14.5602C5.13235 14.5602 7.63863 14.7936 9.13981 16.2126C9.16034 16.2321 9.18615 16.2451 9.21403 16.25C9.24192 16.255 9.27064 16.2516 9.29663 16.2404C9.32263 16.2292 9.34474 16.2105 9.36024 16.1868C9.37574 16.1631 9.38392 16.1354 9.38379 16.1071V4.25556C9.38385 4.1756 9.36675 4.09656 9.33363 4.02378C9.30052 3.951 9.25216 3.88618 9.19184 3.83369C8.84798 3.53973 8.46601 3.29352 8.05629 3.10174Z" fill="white"/>
<path d="M17.8888 2.374C17.7026 2.24925 17.4829 2.18425 17.2588 2.18767C14.8819 2.19822 13.1065 2.49389 11.8363 3.10174C11.4266 3.29317 11.0445 3.53889 10.7004 3.83228C10.6402 3.88486 10.592 3.94971 10.5589 4.02248C10.5259 4.09524 10.5088 4.17424 10.5088 4.25416V16.1064C10.5088 16.1336 10.5168 16.1602 10.5318 16.1829C10.5469 16.2056 10.5683 16.2233 10.5934 16.2338C10.6185 16.2444 10.6461 16.2473 10.6728 16.2422C10.6996 16.2371 10.7242 16.2242 10.7436 16.2052C11.6461 15.3087 13.2299 14.5592 17.2602 14.5595C17.5586 14.5595 17.8447 14.441 18.0557 14.23C18.2667 14.019 18.3852 13.7329 18.3852 13.4345V3.30951C18.3856 3.12481 18.3405 2.94285 18.254 2.77969C18.1674 2.61653 18.042 2.4772 17.8888 2.374Z" fill="white"/>
</g>
<defs>
<clipPath id="clip0_480_839">
<rect width="18" height="18" fill="white" transform="translate(0.946289 0.5)"/>
</clipPath>
</defs>
</svg>
