<svg width="15" height="15" viewBox="0 0 15 15" fill="none" xmlns="http://www.w3.org/2000/svg">
<g clip-path="url(#clip0_837_1179)">
<path fill-rule="evenodd" clip-rule="evenodd" d="M2.2501 9.85004V13.45H2.7001V9.85004H2.2501ZM1.3501 9.62504C1.3501 9.25224 1.65231 8.95004 2.0251 8.95004H2.9251C3.29789 8.95004 3.6001 9.25224 3.6001 9.62504V13.675C3.6001 14.0478 3.29789 14.35 2.9251 14.35H2.0251C1.65231 14.35 1.3501 14.0478 1.3501 13.675V9.62504Z" fill="#373737"/>
<path fill-rule="evenodd" clip-rule="evenodd" d="M8.5501 7.15004V13.45H9.0001V7.15004H8.5501ZM7.6501 6.92504C7.6501 6.55224 7.9523 6.25004 8.3251 6.25004H9.2251C9.59789 6.25004 9.9001 6.55224 9.9001 6.92504V13.675C9.9001 14.0478 9.59789 14.35 9.2251 14.35H8.3251C7.9523 14.35 7.6501 14.0478 7.6501 13.675V6.92504Z" fill="#373737"/>
<path fill-rule="evenodd" clip-rule="evenodd" d="M11.7001 4.00004V13.45H12.1501V4.00004H11.7001ZM10.8001 3.77504C10.8001 3.40224 11.1023 3.10004 11.4751 3.10004H12.3751C12.7479 3.10004 13.0501 3.40224 13.0501 3.77504V13.675C13.0501 14.0478 12.7479 14.35 12.3751 14.35H11.4751C11.1023 14.35 10.8001 14.0478 10.8001 13.675V3.77504Z" fill="#373737"/>
<path fill-rule="evenodd" clip-rule="evenodd" d="M5.4001 1.75004V13.45H5.8501V1.75004H5.4001ZM4.5001 1.52504C4.5001 1.15224 4.80231 0.850037 5.1751 0.850037H6.0751C6.44789 0.850037 6.7501 1.15224 6.7501 1.52504V13.675C6.7501 14.0478 6.44789 14.35 6.0751 14.35H5.1751C4.80231 14.35 4.5001 14.0478 4.5001 13.675V1.52504Z" fill="#373737"/>
</g>
<defs>
<clipPath id="clip0_837_1179">
<rect width="14.4" height="14.4" fill="white" transform="translate(0 0.400024)"/>
</clipPath>
</defs>
</svg>
