<svg width="24" height="24" viewBox="0 0 24 24" fill="none" xmlns="http://www.w3.org/2000/svg">
<g clip-path="url(#clip0_432_1229)">
<path d="M23.9873 12.2245C23.9873 11.2413 23.9057 10.5238 23.729 9.77966H12.239V14.2176H18.9833C18.8474 15.3205 18.1132 16.9815 16.4814 18.0976L16.4585 18.2462L20.0915 20.9964L20.3431 21.0209C22.6547 18.9347 23.9873 15.8653 23.9873 12.2245Z" fill="#4285F4"/>
<path d="M12.239 23.9176C15.5431 23.9176 18.317 22.8545 20.3431 21.0209L16.4814 18.0976C15.448 18.8018 14.061 19.2934 12.239 19.2934C9.00279 19.2934 6.2561 17.2074 5.27698 14.324L5.13347 14.3359L1.35592 17.1927L1.30652 17.3269C3.31894 21.2334 7.4526 23.9176 12.239 23.9176Z" fill="#34A853"/>
<path d="M5.27702 14.3239C5.01867 13.5798 4.86916 12.7825 4.86916 11.9587C4.86916 11.1349 5.01867 10.3376 5.26343 9.59354L5.25658 9.43507L1.4317 6.53235L1.30655 6.59052C0.47714 8.21162 0.0012207 10.032 0.0012207 11.9587C0.0012207 13.8854 0.47714 15.7058 1.30655 17.3269L5.27702 14.3239Z" fill="#FBBC05"/>
<path d="M12.239 4.62403C14.5369 4.62403 16.087 5.59402 16.9709 6.40461L20.4247 3.10928C18.3035 1.1826 15.5431 0 12.239 0C7.4526 0 3.31894 2.68406 1.30652 6.59057L5.26339 9.59359C6.2561 6.7102 9.00279 4.62403 12.239 4.62403Z" fill="#EB4335"/>
</g>
<defs>
<clipPath id="clip0_432_1229">
<rect width="24" height="24" fill="white"/>
</clipPath>
</defs>
</svg>
