<svg width="22" height="23" viewBox="0 0 22 23" fill="none" xmlns="http://www.w3.org/2000/svg">
<mask id="mask0_594_572" style="mask-type:alpha" maskUnits="userSpaceOnUse" x="0" y="0" width="22" height="23">
<rect y="0.636841" width="21.9263" height="21.9263" fill="#D9D9D9"/>
</mask>
<g mask="url(#mask0_594_572)">
<path d="M1.82717 18.9087C1.56832 18.9087 1.35149 18.821 1.17669 18.6456C1.00128 18.4708 0.913574 18.254 0.913574 17.9951V16.3506C0.913574 15.8329 1.04696 15.357 1.31373 14.9227C1.57989 14.489 1.93375 14.158 2.37533 13.9296C3.31937 13.4576 4.27865 13.1034 5.25315 12.8671C6.22765 12.6314 7.21738 12.5136 8.22233 12.5136C9.22728 12.5136 10.217 12.6314 11.1915 12.8671C12.166 13.1034 13.1253 13.4576 14.0693 13.9296C14.5109 14.158 14.8648 14.489 15.1309 14.9227C15.3977 15.357 15.5311 15.8329 15.5311 16.3506V17.9951C15.5311 18.254 15.4434 18.4708 15.268 18.6456C15.0932 18.821 14.8763 18.9087 14.6175 18.9087H1.82717ZM16.9243 18.9087C17.0614 18.8021 17.1679 18.6687 17.2441 18.5086C17.3202 18.349 17.3583 18.1702 17.3583 17.9723V16.1679C17.3583 15.498 17.1719 14.8545 16.7992 14.2375C16.4258 13.6211 15.8965 13.0922 15.2113 12.6506C15.9879 12.7419 16.7188 12.8979 17.404 13.1183C18.0891 13.3394 18.7287 13.6099 19.3225 13.9296C19.8707 14.2342 20.2894 14.5728 20.5787 14.9455C20.868 15.3189 21.0127 15.7264 21.0127 16.1679V17.9951C21.0127 18.254 20.9249 18.4708 20.7495 18.6456C20.5747 18.821 20.3579 18.9087 20.0991 18.9087H16.9243ZM8.22233 11.6C7.21738 11.6 6.35707 11.2421 5.64143 10.5265C4.92578 9.81083 4.56795 8.95053 4.56795 7.94558C4.56795 6.94062 4.92578 6.08032 5.64143 5.36467C6.35707 4.64902 7.21738 4.2912 8.22233 4.2912C9.22728 4.2912 10.0876 4.64902 10.8032 5.36467C11.5189 6.08032 11.8767 6.94062 11.8767 7.94558C11.8767 8.95053 11.5189 9.81083 10.8032 10.5265C10.0876 11.2421 9.22728 11.6 8.22233 11.6ZM17.3583 7.94558C17.3583 8.95053 17.0005 9.81083 16.2848 10.5265C15.5692 11.2421 14.7089 11.6 13.7039 11.6C13.5364 11.6 13.3232 11.5811 13.0644 11.5433C12.8055 11.5049 12.5924 11.4629 12.4249 11.4172C12.836 10.93 13.1518 10.3894 13.3723 9.79561C13.5934 9.20177 13.7039 8.58509 13.7039 7.94558C13.7039 7.30606 13.5934 6.68938 13.3723 6.09555C13.1518 5.50171 12.836 4.96117 12.4249 4.47392C12.638 4.39778 12.8512 4.34815 13.0644 4.325C13.2776 4.30247 13.4907 4.2912 13.7039 4.2912C14.7089 4.2912 15.5692 4.64902 16.2848 5.36467C17.0005 6.08032 17.3583 6.94062 17.3583 7.94558ZM2.74076 17.0815H13.7039V16.3506C13.7039 16.1832 13.6622 16.0309 13.5787 15.8939C13.4947 15.7568 13.3841 15.6502 13.2471 15.5741C12.4249 15.163 11.595 14.8545 10.7576 14.6486C9.92009 14.4434 9.07502 14.3407 8.22233 14.3407C7.36964 14.3407 6.52457 14.4434 5.68711 14.6486C4.84964 14.8545 4.0198 15.163 3.19756 15.5741C3.06052 15.6502 2.95028 15.7568 2.86684 15.8939C2.78279 16.0309 2.74076 16.1832 2.74076 16.3506V17.0815ZM8.22233 9.77277C8.72481 9.77277 9.15511 9.5937 9.51324 9.23557C9.87076 8.87805 10.0495 8.44805 10.0495 7.94558C10.0495 7.4431 9.87076 7.0131 9.51324 6.65558C9.15511 6.29745 8.72481 6.11839 8.22233 6.11839C7.71985 6.11839 7.28985 6.29745 6.93233 6.65558C6.57421 7.0131 6.39514 7.4431 6.39514 7.94558C6.39514 8.44805 6.57421 8.87805 6.93233 9.23557C7.28985 9.5937 7.71985 9.77277 8.22233 9.77277Z" fill="#1C1B1F"/>
</g>
</svg>
