<svg width="20" height="19" viewBox="0 0 20 19" fill="none" xmlns="http://www.w3.org/2000/svg">
<path d="M8.91408 18.9585H3.77159C3.4843 18.9585 3.2403 18.8573 3.03958 18.6549C2.83809 18.4517 2.73735 18.2053 2.73735 17.9156V9.8038H1.47327C1.22429 9.8038 1.05689 9.68792 0.971087 9.45615C0.884517 9.22438 0.936995 9.03125 1.12852 8.87674L9.51739 1.25745C9.70892 1.06431 9.93875 0.967743 10.2069 0.967743C10.475 0.967743 10.6953 1.045 10.8677 1.19951L14.6599 4.67599V2.70598C14.6599 2.4549 14.7461 2.24709 14.9184 2.08253C15.0908 1.91875 15.2919 1.83686 15.5218 1.83686H16.4698C16.6996 1.83686 16.9007 1.91875 17.0731 2.08253C17.2455 2.24709 17.3317 2.4549 17.3317 2.70598V7.08055L19.2853 8.87674C19.4768 9.03125 19.5296 9.22438 19.4438 9.45615C19.3573 9.68792 19.1895 9.8038 18.9405 9.8038H17.6764V17.9156C17.6764 18.2053 17.5761 18.4517 17.3754 18.6549C17.1739 18.8573 16.9295 18.9585 16.6422 18.9585H11.4997V12.4401H8.91408V18.9585ZM4.46109 17.2203H7.19034V11.7738C7.19034 11.4648 7.2907 11.2087 7.49142 11.0055C7.69291 10.8031 7.94687 10.7019 8.25332 10.7019H12.1605C12.4669 10.7019 12.7209 10.8031 12.9224 11.0055C13.1231 11.2087 13.2234 11.4648 13.2234 11.7738V17.2203H15.9527V8.18144L10.2069 2.96672L4.46109 8.18144V17.2203ZM8.02349 7.97864H12.3903C12.3903 7.39923 12.17 6.92102 11.7295 6.54402C11.289 6.16778 10.7815 5.97967 10.2069 5.97967C9.63231 5.97967 9.12476 6.16315 8.68425 6.53011C8.24374 6.89707 8.02349 7.37992 8.02349 7.97864Z" fill="#1C1B1F"/>
</svg>
