<svg width="20" height="20" viewBox="0 0 20 20" fill="none" xmlns="http://www.w3.org/2000/svg">
<path d="M15.8796 14.8454L13.123 12.0889C13.7867 11.2054 14.145 10.13 14.1438 9.025C14.1438 6.20254 11.8475 3.90625 9.025 3.90625C6.20254 3.90625 3.90625 6.20254 3.90625 9.025C3.90625 11.8475 6.20254 14.1438 9.025 14.1438C10.13 14.145 11.2054 13.7867 12.0889 13.123L14.8454 15.8796C14.9849 16.0043 15.1669 16.0709 15.354 16.0657C15.5411 16.0604 15.7191 15.9838 15.8514 15.8514C15.9838 15.7191 16.0604 15.5411 16.0657 15.354C16.0709 15.1669 16.0043 14.9849 15.8796 14.8454ZM5.36875 9.025C5.36875 8.30186 5.58319 7.59496 5.98494 6.9937C6.38669 6.39243 6.95772 5.9238 7.62581 5.64707C8.29391 5.37033 9.02906 5.29793 9.7383 5.439C10.4475 5.58008 11.099 5.92831 11.6104 6.43964C12.1217 6.95098 12.4699 7.60246 12.611 8.3117C12.7521 9.02094 12.6797 9.75609 12.4029 10.4242C12.1262 11.0923 11.6576 11.6633 11.0563 12.0651C10.455 12.4668 9.74814 12.6813 9.025 12.6813C8.05566 12.6801 7.12635 12.2945 6.44093 11.6091C5.7555 10.9236 5.36991 9.99434 5.36875 9.025Z" fill="#005567" fill-opacity="0.5"/>
</svg>
