<svg width="16" height="15" viewBox="0 0 16 15" fill="none" xmlns="http://www.w3.org/2000/svg">
<path fill-rule="evenodd" clip-rule="evenodd" d="M10.8854 3.01715C11.0497 3.01705 11.2072 3.08225 11.3233 3.19838L12.0011 3.87619C12.1173 3.99232 12.1825 4.14986 12.1824 4.3141C12.1823 4.47833 12.1169 4.63579 12.0006 4.75178L4.3281 12.4054C4.27061 12.4628 4.2024 12.5083 4.12735 12.5393L3.0046 13.003C2.77349 13.0985 2.50765 13.0455 2.33084 12.8687C2.15404 12.6919 2.10102 12.426 2.19649 12.1949L2.66027 11.0722C2.69127 10.9971 2.73674 10.9289 2.79409 10.8714L10.4477 3.19892C10.5637 3.08265 10.7212 3.01725 10.8854 3.01715Z" fill="#373737"/>
<path fill-rule="evenodd" clip-rule="evenodd" d="M12.3311 1.43246C12.4625 1.37803 12.6033 1.35001 12.7456 1.35001C12.8878 1.35001 13.0287 1.37803 13.1601 1.43246C13.2915 1.4869 13.4109 1.56668 13.5115 1.66726L13.5115 1.66728L13.5327 1.68851C13.7357 1.89161 13.8497 2.16698 13.8497 2.45409C13.8497 2.74121 13.7357 3.01657 13.5327 3.21967L13.201 3.55143C12.9593 3.79306 12.5675 3.79306 12.3259 3.55143L11.6481 2.87361C11.532 2.75754 11.4668 2.60011 11.4669 2.43596C11.4669 2.27181 11.5322 2.1144 11.6483 1.99838L11.9797 1.66728C11.9797 1.66724 11.9798 1.66719 11.9798 1.66715L11.9799 1.66707C12.0804 1.56658 12.1997 1.48686 12.3311 1.43246Z" fill="#373737"/>
</svg>
