<svg width="22" height="23" viewBox="0 0 22 23" fill="none" xmlns="http://www.w3.org/2000/svg">
<mask id="mask0_594_576" style="mask-type:alpha" maskUnits="userSpaceOnUse" x="0" y="0" width="22" height="23">
<rect y="0.636841" width="21.9263" height="21.9263" fill="#D9D9D9"/>
</mask>
<g mask="url(#mask0_594_576)">
<path d="M12.8561 22.0009H9.07022C8.81783 22.0009 8.59909 21.9142 8.414 21.7409C8.22891 21.5675 8.11954 21.3508 8.08589 21.0908L7.78302 18.6726C7.56428 18.5859 7.35833 18.4819 7.16516 18.3606C6.97132 18.2392 6.78186 18.1092 6.59677 17.9705L4.40096 18.9066C4.1654 18.9933 3.92983 19.0019 3.69426 18.9326C3.4587 18.8633 3.27361 18.7159 3.139 18.4906L1.2713 15.1363C1.13669 14.9109 1.09462 14.6682 1.1451 14.4082C1.19558 14.1482 1.32178 13.9402 1.52369 13.7842L3.41663 12.302C3.39981 12.1807 3.39139 12.0635 3.39139 11.9505V11.2484C3.39139 11.1361 3.39981 11.0192 3.41663 10.8979L1.52369 9.41576C1.32178 9.25975 1.19558 9.05173 1.1451 8.79171C1.09462 8.53169 1.13669 8.289 1.2713 8.06364L3.139 4.70935C3.25678 4.46666 3.4375 4.31481 3.68114 4.25379C3.92545 4.19346 4.1654 4.20664 4.40096 4.29331L6.59677 5.22939C6.78186 5.09071 6.97536 4.9607 7.17728 4.83936C7.37919 4.71801 7.5811 4.614 7.78302 4.52733L8.08589 2.10912C8.11954 1.84909 8.22891 1.63241 8.414 1.45906C8.59909 1.28571 8.81783 1.19904 9.07022 1.19904H12.8561C13.1085 1.19904 13.3272 1.28571 13.5123 1.45906C13.6974 1.63241 13.8068 1.84909 13.8404 2.10912L14.1433 4.52733C14.362 4.614 14.5683 4.71801 14.7622 4.83936C14.9553 4.9607 15.1445 5.09071 15.3295 5.22939L17.5254 4.29331C17.7609 4.20664 17.9965 4.19797 18.2321 4.26731C18.4676 4.33665 18.6527 4.48399 18.7873 4.70935L20.655 8.06364C20.7896 8.289 20.8317 8.53169 20.7812 8.79171C20.7307 9.05173 20.6045 9.25975 20.4026 9.41576L18.5097 10.8979C18.5265 11.0192 18.5349 11.1361 18.5349 11.2484V11.9505C18.5349 12.0635 18.5181 12.1807 18.4845 12.302L20.3774 13.7842C20.5793 13.9402 20.7055 14.1482 20.756 14.4082C20.8065 14.6682 20.7644 14.9109 20.6298 15.1363L18.7621 18.4646C18.6275 18.6899 18.4383 18.8418 18.1947 18.9201C17.9504 18.9978 17.7104 18.9933 17.4749 18.9066L15.3295 17.9705C15.1445 18.1092 14.951 18.2392 14.749 18.3606C14.5471 18.4819 14.3452 18.5859 14.1433 18.6726L13.8404 21.0908C13.8068 21.3508 13.6974 21.5675 13.5123 21.7409C13.3272 21.9142 13.1085 22.0009 12.8561 22.0009ZM11.0136 15.2403C11.9896 15.2403 12.8225 14.8849 13.5123 14.1742C14.2022 13.4635 14.5471 12.6054 14.5471 11.6C14.5471 10.5945 14.2022 9.73646 13.5123 9.02573C12.8225 8.315 11.9896 7.95964 11.0136 7.95964C10.0209 7.95964 9.18363 8.315 8.50183 9.02573C7.82071 9.73646 7.48015 10.5945 7.48015 11.6C7.48015 12.6054 7.82071 13.4635 8.50183 14.1742C9.18363 14.8849 10.0209 15.2403 11.0136 15.2403ZM11.0136 13.1601C10.593 13.1601 10.2356 13.0082 9.94148 12.7045C9.64668 12.4015 9.49929 12.0333 9.49929 11.6C9.49929 11.1666 9.64668 10.7984 9.94148 10.4954C10.2356 10.1917 10.593 10.0398 11.0136 10.0398C11.4343 10.0398 11.792 10.1917 12.0868 10.4954C12.3809 10.7984 12.528 11.1666 12.528 11.6C12.528 12.0333 12.3809 12.4015 12.0868 12.7045C11.792 13.0082 11.4343 13.1601 11.0136 13.1601ZM9.95359 19.9207H11.9475L12.3008 17.1645C12.8225 17.0258 13.3064 16.8219 13.7526 16.5529C14.1982 16.2845 14.606 15.9597 14.9762 15.5783L17.4749 16.6444L18.4592 14.8762L16.2886 13.1861C16.3728 12.9434 16.4317 12.6875 16.4653 12.4185C16.499 12.1502 16.5158 11.8773 16.5158 11.6C16.5158 11.3226 16.499 11.0494 16.4653 10.7804C16.4317 10.512 16.3728 10.2565 16.2886 10.0138L18.4592 8.32367L17.4749 6.55551L14.9762 7.64761C14.606 7.24891 14.1982 6.91504 13.7526 6.646C13.3064 6.37765 12.8225 6.17414 12.3008 6.03546L11.9727 3.27922H9.97883L9.62548 6.03546C9.10387 6.17414 8.62029 6.37765 8.17473 6.646C7.7285 6.91504 7.3203 7.24024 6.95012 7.62161L4.45144 6.55551L3.46711 8.32367L5.63768 9.98781C5.55355 10.2478 5.49466 10.5079 5.46101 10.7679C5.42736 11.0279 5.41053 11.3053 5.41053 11.6C5.41053 11.8773 5.42736 12.146 5.46101 12.406C5.49466 12.6661 5.55355 12.9261 5.63768 13.1861L3.46711 14.8762L4.45144 16.6444L6.95012 15.5523C7.3203 15.951 7.7285 16.2845 8.17473 16.5529C8.62029 16.8219 9.10387 17.0258 9.62548 17.1645L9.95359 19.9207Z" fill="#1C1B1F"/>
</g>
</svg>
