<svg width="21" height="20" viewBox="0 0 21 20" fill="none" xmlns="http://www.w3.org/2000/svg">
<path fill-rule="evenodd" clip-rule="evenodd" d="M10.4631 0.00720215C5.1654 0.00720215 0.870361 4.30224 0.870361 9.59995C0.870361 14.8976 5.1654 19.1927 10.4631 19.1927C15.7608 19.1927 20.0558 14.8976 20.0558 9.59995C20.0558 4.30224 15.7608 0.00720215 10.4631 0.00720215ZM2.24075 9.59995C2.24075 8.85382 2.34015 8.13089 2.52643 7.44369C2.67949 7.77348 2.86614 8.08137 3.05365 8.39066C3.2513 8.71669 3.44991 9.04429 3.61112 9.40077C3.82225 9.87034 4.22057 10.0243 4.61996 10.1787C4.97964 10.3178 5.34019 10.4571 5.56564 10.8277C5.79037 11.1969 5.76777 11.6184 5.74509 12.0414C5.72515 12.4133 5.70515 12.7863 5.853 13.1261C5.99492 13.452 6.25602 13.6205 6.52293 13.7927C6.68772 13.899 6.85473 14.0068 6.99728 14.1539C7.3232 14.4864 7.36479 14.9236 7.40629 15.3597L7.40629 15.3598C7.41338 15.4342 7.42046 15.5087 7.42895 15.5825C7.49463 16.1784 7.60123 16.7691 7.74799 17.3503C7.74922 17.3551 7.75044 17.3599 7.75166 17.3647C4.5429 16.2442 2.24075 13.1908 2.24075 9.59995ZM3.44727 6.14535C3.38327 5.96791 3.32077 5.79459 3.24485 5.6594C3.80258 4.63997 4.56998 3.75162 5.48904 3.05233C5.47268 3.25203 5.49017 3.45337 5.54106 3.64779C5.60249 3.88243 5.71126 4.10202 5.86071 4.29306C5.9481 4.40552 6.05331 4.4917 6.15446 4.57456C6.34722 4.73246 6.52526 4.87831 6.53734 5.17097C6.55532 5.59922 6.48852 5.81848 6.20844 6.11954C6.1509 6.18054 6.10137 6.2537 6.05201 6.32661L6.05201 6.32662C5.99742 6.40726 5.94304 6.48758 5.87826 6.55078L5.86953 6.55928L5.85758 6.57093C5.80222 6.6249 5.77896 6.64758 5.75109 6.65933C5.73091 6.66784 5.7083 6.67061 5.66932 6.67539H5.66931C5.63992 6.679 5.60122 6.68375 5.54723 6.69296C5.17689 6.75552 4.85249 6.84643 4.50606 6.94351L4.50605 6.94351L4.50589 6.94356C4.43736 6.96276 4.36796 6.98221 4.29718 7.00173C3.80516 7.13771 3.62075 6.62639 3.44727 6.14535ZM7.40582 2.56337C7.47656 2.41694 7.40602 2.21019 7.2829 2.01526C7.4373 1.95044 7.5941 1.89019 7.75313 1.8347C7.85304 1.90439 7.96397 1.95401 8.09622 1.96262C8.19284 1.96911 8.2876 1.95579 8.38037 1.94275C8.56268 1.91712 8.73728 1.89257 8.90304 2.02171C8.97585 2.0779 9.04332 2.138 9.1099 2.1973L9.10992 2.19732C9.29709 2.36404 9.47717 2.52445 9.74883 2.57373C10.1051 2.63839 10.4824 2.43026 10.5706 2.06582C10.6231 1.85326 10.5743 1.62931 10.5259 1.40761C10.5238 1.39766 10.5216 1.38772 10.5195 1.37778C12.1899 1.389 13.7422 1.89844 15.035 2.76493C14.9465 2.7247 14.8379 2.72513 14.7031 2.78784C14.4432 2.9086 14.0749 3.21608 14.0445 3.521C14.0098 3.86702 14.5203 3.91584 14.7627 3.91584C15.1263 3.91584 15.4954 3.75311 15.3781 3.33257C15.3248 3.14203 15.2513 2.94273 15.1304 2.82987C15.4057 3.02004 15.6689 3.22657 15.9184 3.44805C15.9136 3.45287 15.9088 3.45777 15.904 3.46273C15.8318 3.53795 15.7561 3.60858 15.6811 3.67871C15.4997 3.84814 15.3214 4.01462 15.2021 4.23572C15.083 4.45541 14.949 4.56033 14.7079 4.61729C14.6793 4.62401 14.6499 4.62983 14.6202 4.63569C14.5118 4.65711 14.3996 4.67927 14.3122 4.74919C14.0021 4.99329 14.1786 5.57956 14.4723 5.756C14.8436 5.97826 15.3944 5.87377 15.6744 5.55644C15.735 5.48766 15.7887 5.40488 15.843 5.32111C15.9849 5.10234 16.1311 4.87693 16.4157 4.87723C16.589 4.87687 16.7554 4.94472 16.8791 5.06609C17.0025 5.19368 17.0138 5.31535 17.0272 5.45855C17.0315 5.50425 17.036 5.55214 17.0444 5.60311C17.1059 5.97882 17.4385 5.77495 17.6392 5.58326C17.7848 5.84285 17.9167 6.11114 18.034 6.38717C18.0178 6.41048 18.0019 6.43395 17.986 6.45729L17.9859 6.45738C17.7848 6.75321 17.598 7.02799 17.1044 6.68314C16.9958 6.60743 16.9014 6.52 16.8084 6.43377C16.6289 6.26734 16.4541 6.10537 16.1909 6.04077C15.8893 5.96675 15.5812 6.02324 15.2806 6.07836L15.2805 6.07837L15.2805 6.07839L15.2804 6.0784L15.2804 6.07841C15.2332 6.08705 15.1863 6.09566 15.1396 6.10372C15.0838 6.11336 15.0265 6.12223 14.9685 6.13123L14.9684 6.13124C14.6188 6.18545 14.2408 6.24406 13.9859 6.49857C13.8481 6.6355 13.7415 6.79486 13.6341 6.95534L13.6341 6.95536C13.5174 7.12964 13.3999 7.30524 13.2407 7.45484C12.6493 8.01157 12.3996 8.61925 12.7825 9.40637C13.1508 10.1631 13.9212 10.5738 14.7524 10.5198C14.9283 10.5081 15.1057 10.4769 15.2755 10.4471C15.8941 10.3384 16.4124 10.2474 16.3939 11.1785C16.3853 11.5981 16.4731 11.8893 16.602 12.2795C16.6961 12.5627 16.7111 12.839 16.7266 13.1249V13.1249V13.125C16.7307 13.2022 16.735 13.2801 16.7408 13.3591C16.7714 13.7788 16.8301 14.2292 16.9481 14.6553C15.4432 16.5829 13.0978 17.8223 10.4631 17.8223C9.99691 17.8223 9.53978 17.7835 9.09476 17.7089C9.09569 17.686 9.0965 17.6634 9.0973 17.6413C9.10053 17.5515 9.10347 17.4698 9.11282 17.4081C9.21688 16.7272 9.55777 16.0613 10.0177 15.5517C10.2057 15.3437 10.4225 15.1634 10.6393 14.9832C10.9464 14.7279 11.2535 14.4726 11.4785 14.1385C11.8523 13.5826 11.9649 12.8327 11.8099 12.1822C11.65 11.5091 10.9614 11.1498 10.3213 10.8159C10.0476 10.6731 9.78276 10.535 9.5719 10.3789C9.46663 10.3009 9.36437 10.2119 9.26133 10.1222C8.96825 9.86705 8.66881 9.60638 8.27559 9.57849C8.18234 9.57181 8.09486 9.57536 8.00888 9.57886C7.86899 9.58455 7.73307 9.59007 7.58269 9.55109C7.51246 9.53299 7.44699 9.50867 7.38284 9.48484C7.24357 9.4331 7.11045 9.38365 6.94803 9.40505C6.75327 9.43064 6.5901 9.53643 6.42796 9.64155C6.22109 9.77568 6.0159 9.90871 5.74893 9.8727C5.29713 9.81189 4.83163 9.28343 4.72885 8.85304C4.59695 8.29975 5.03462 8.12031 5.50355 8.07106C5.69926 8.05051 5.91895 8.02824 6.10695 8.09975C6.24432 8.15085 6.34147 8.24825 6.43872 8.34576C6.51669 8.42394 6.59474 8.50219 6.69365 8.55669C7.11033 8.78495 7.1947 8.42008 7.13089 8.05008C7.12055 7.99007 7.11002 7.9339 7.1001 7.88097L7.10004 7.88067L7.10001 7.88053L7.1 7.88045C7.01834 7.44496 6.97774 7.2284 7.41824 6.88867C7.43884 6.87286 7.45925 6.85732 7.47942 6.84197C7.7948 6.60185 8.05047 6.40719 7.99895 5.96323C7.98823 5.87188 7.96457 5.79701 7.94271 5.72781C7.89815 5.58679 7.86103 5.46933 7.95612 5.28403C8.06154 5.0778 8.34739 4.89135 8.53975 4.76588L8.55096 4.75857C8.69808 4.6626 8.94479 4.59719 9.20178 4.52905C9.81183 4.36731 10.4798 4.1902 10.0113 3.55262C9.81557 3.28668 9.45456 2.81133 9.11196 2.74623C8.82077 2.6912 8.63967 2.89455 8.45973 3.09659C8.37504 3.19168 8.29061 3.28648 8.19508 3.35392C7.88675 3.57189 7.28634 3.81942 6.97758 3.48239C6.70116 3.18062 6.91453 3.01366 7.1333 2.84248C7.2433 2.7564 7.35467 2.66926 7.40582 2.56337ZM18.084 12.6925C18.4718 11.7378 18.6855 10.6938 18.6855 9.59995C18.6855 9.03442 18.6284 8.48223 18.5196 7.94882C18.1186 8.17102 17.582 8.25925 17.2504 8.2107C16.9114 8.15417 16.591 8.01666 16.3164 7.80986C16.2622 7.76987 16.204 7.7116 16.1436 7.65114C16.0385 7.54584 15.9267 7.43392 15.8179 7.40046C15.6466 7.34778 15.0488 7.46641 14.9186 7.56961C14.8414 7.63079 14.7762 7.74115 14.7127 7.84846L14.7127 7.84847C14.6691 7.92221 14.6263 7.9945 14.5811 8.0484C14.5242 8.11622 14.4532 8.17986 14.382 8.24374C14.2935 8.32305 14.2046 8.40273 14.1418 8.4912C13.571 9.29859 14.9807 9.07768 15.347 9.02028L15.3537 9.01923C16.059 8.90832 16.7973 9.03936 17.3009 9.58538C17.711 10.0304 17.7222 10.4596 17.7351 10.9517C17.7386 11.0856 17.7422 11.2242 17.754 11.369C17.77 11.5633 17.8396 11.7522 17.9095 11.9421C17.9705 12.1076 18.0318 12.2739 18.0581 12.4452C18.0707 12.5274 18.0786 12.6099 18.084 12.6925ZM10.38 13.3094C10.2137 13.6062 9.91552 13.8395 9.62606 14.0659C9.46817 14.1894 9.31289 14.3109 9.18305 14.4395C9.15803 14.4643 9.12594 14.5044 9.08992 14.5495L9.08991 14.5495C8.98225 14.6841 8.8395 14.8625 8.74581 14.807C8.6846 14.7706 8.65103 14.5512 8.62537 14.3836C8.61351 14.3061 8.60335 14.2396 8.59293 14.2074C8.42281 13.6942 8.09805 13.2462 7.6632 12.9248C7.61661 12.8895 7.54608 12.8506 7.47065 12.8089C7.32905 12.7308 7.1702 12.6431 7.12018 12.5522C7.05811 12.4427 7.08151 12.2251 7.10024 12.0511L7.10024 12.0511C7.10735 11.985 7.11379 11.9251 7.11462 11.8799C7.11646 11.786 7.10084 11.6678 7.0847 11.5455C7.05961 11.3556 7.03326 11.156 7.06922 11.0234C7.09604 10.925 7.09216 10.8884 7.09098 10.8772C7.0907 10.8746 7.09057 10.8734 7.09102 10.8731C7.09141 10.8729 7.09223 10.8733 7.09377 10.8742C7.10224 10.8789 7.13233 10.8957 7.23067 10.8739C7.3493 10.8474 7.83921 10.9335 7.98695 10.9643C8.17565 11.0036 8.29624 11.1057 8.43242 11.221L8.43243 11.221L8.43244 11.221L8.43245 11.221C8.46562 11.2491 8.49973 11.278 8.53597 11.3069C9.02246 11.697 9.5582 11.9989 10.1034 12.2979C10.5256 12.5317 10.6498 12.8276 10.38 13.3094Z" fill="#259E73"/>
</svg>
