<svg width="16" height="18" viewBox="0 0 16 18" fill="none" xmlns="http://www.w3.org/2000/svg">
<path d="M15.1063 2.91248H11.3938V1.98436C11.3938 1.5741 11.2308 1.18065 10.9407 0.890554C10.6506 0.600459 10.2571 0.437485 9.84688 0.437485H6.75313C6.34287 0.437485 5.94941 0.600459 5.65932 0.890554C5.36922 1.18065 5.20625 1.5741 5.20625 1.98436V2.91248H1.49375C1.32965 2.91248 1.17227 2.97767 1.05623 3.09371C0.94019 3.20975 0.875 3.36713 0.875 3.53123C0.875 3.69534 0.94019 3.85272 1.05623 3.96876C1.17227 4.0848 1.32965 4.14998 1.49375 4.14998H2.15117L2.88594 15.9418C2.94085 16.9802 3.73672 17.7625 4.74219 17.7625H11.8578C12.8683 17.7625 13.6483 16.9976 13.7141 15.9449L14.4488 4.14998H15.1063C15.2704 4.14998 15.4277 4.0848 15.5438 3.96876C15.6598 3.85272 15.725 3.69534 15.725 3.53123C15.725 3.36713 15.6598 3.20975 15.5438 3.09371C15.4277 2.97767 15.2704 2.91248 15.1063 2.91248ZM5.84704 15.2875H5.825C5.66465 15.2876 5.51052 15.2254 5.39509 15.1141C5.27967 15.0028 5.21196 14.851 5.20625 14.6908L4.89688 6.02828C4.89103 5.86418 4.95061 5.70447 5.06252 5.5843C5.17442 5.46413 5.32948 5.39333 5.49358 5.38749C5.65768 5.38164 5.81739 5.44122 5.93756 5.55313C6.05773 5.66503 6.12853 5.82009 6.13438 5.98419L6.44375 14.6467C6.4467 14.728 6.4336 14.809 6.40519 14.8852C6.37679 14.9614 6.33365 15.0313 6.27823 15.0908C6.22281 15.1503 6.1562 15.1983 6.08222 15.2321C6.00823 15.2658 5.92832 15.2846 5.84704 15.2875ZM8.91875 14.6687C8.91875 14.8328 8.85356 14.9902 8.73752 15.1063C8.62149 15.2223 8.4641 15.2875 8.3 15.2875C8.1359 15.2875 7.97852 15.2223 7.86248 15.1063C7.74644 14.9902 7.68125 14.8328 7.68125 14.6687V6.00624C7.68125 5.84213 7.74644 5.68475 7.86248 5.56871C7.97852 5.45267 8.1359 5.38749 8.3 5.38749C8.4641 5.38749 8.62149 5.45267 8.73752 5.56871C8.85356 5.68475 8.91875 5.84213 8.91875 6.00624V14.6687ZM10.1563 2.91248H6.44375V1.98436C6.44328 1.9436 6.45097 1.90316 6.46635 1.86542C6.48173 1.82767 6.5045 1.79338 6.53332 1.76456C6.56215 1.73574 6.59644 1.71297 6.63418 1.69758C6.67193 1.6822 6.71237 1.67452 6.75313 1.67498H9.84688C9.88763 1.67452 9.92807 1.6822 9.96582 1.69758C10.0036 1.71297 10.0379 1.73574 10.0667 1.76456C10.0955 1.79338 10.1183 1.82767 10.1337 1.86542C10.149 1.90316 10.1567 1.9436 10.1563 1.98436V2.91248ZM11.3938 14.6908C11.388 14.851 11.3203 15.0028 11.2049 15.1141C11.0895 15.2254 10.9354 15.2876 10.775 15.2875H10.7526C10.6713 15.2846 10.5915 15.2657 10.5175 15.2319C10.4436 15.1982 10.377 15.1502 10.3216 15.0906C10.2663 15.0311 10.2231 14.9613 10.1948 14.8851C10.1664 14.809 10.1533 14.7279 10.1563 14.6467L10.4656 5.98419C10.4685 5.90294 10.4874 5.82305 10.5212 5.74908C10.5549 5.67512 10.6029 5.60854 10.6624 5.55313C10.7219 5.49772 10.7918 5.45457 10.868 5.42615C10.9441 5.39773 11.0252 5.38459 11.1064 5.38749C11.1877 5.39038 11.2676 5.40925 11.3415 5.44302C11.4155 5.47679 11.4821 5.5248 11.5375 5.5843C11.5929 5.6438 11.636 5.71364 11.6645 5.78981C11.6929 5.86599 11.706 5.94702 11.7031 6.02828L11.3938 14.6908Z" fill="white"/>
</svg>
