<svg width="14" height="14" viewBox="0 0 14 14" fill="none" xmlns="http://www.w3.org/2000/svg">
<path d="M12.8796 11.8454L10.123 9.08887C10.7867 8.20538 11.145 7.12998 11.1438 6.025C11.1438 3.20254 8.84746 0.90625 6.025 0.90625C3.20254 0.90625 0.90625 3.20254 0.90625 6.025C0.90625 8.84746 3.20254 11.1438 6.025 11.1438C7.12998 11.145 8.20538 10.7867 9.08887 10.123L11.8454 12.8796C11.9849 13.0043 12.1669 13.0709 12.354 13.0657C12.5411 13.0604 12.7191 12.9838 12.8514 12.8514C12.9838 12.7191 13.0604 12.5411 13.0657 12.354C13.0709 12.1669 13.0043 11.9849 12.8796 11.8454V11.8454ZM2.36875 6.025C2.36875 5.30186 2.58319 4.59496 2.98494 3.9937C3.38669 3.39243 3.95772 2.9238 4.62581 2.64707C5.29391 2.37033 6.02906 2.29793 6.7383 2.439C7.44754 2.58008 8.09902 2.92831 8.61036 3.43964C9.1217 3.95098 9.46992 4.60246 9.611 5.3117C9.75207 6.02094 9.67967 6.75609 9.40294 7.42419C9.1262 8.09228 8.65757 8.66331 8.0563 9.06506C7.45504 9.46681 6.74814 9.68125 6.025 9.68125C5.05566 9.68009 4.12635 9.2945 3.44093 8.60908C2.7555 7.92365 2.36991 6.99434 2.36875 6.025V6.025Z" fill="#005567" fill-opacity="0.5"/>
</svg>
