<svg width="14" height="11" viewBox="0 0 14 11" fill="none" xmlns="http://www.w3.org/2000/svg">
<path d="M9.45003 5.4C8.87066 5.4 8.31378 5.14125 7.87503 4.67437C7.45034 4.21875 7.18878 3.60843 7.14378 2.95875C7.09596 2.26687 7.3069 1.62843 7.73722 1.16437C8.16753 0.703122 8.77503 0.449997 9.45003 0.449997C10.1194 0.449997 10.7269 0.705934 11.1572 1.16718C11.5932 1.63406 11.8041 2.26968 11.7535 2.95593C11.7057 3.60562 11.4469 4.21593 11.0222 4.67156C10.5863 5.14125 10.0294 5.4 9.45003 5.4ZM9.45003 1.35C9.02816 1.35 8.65409 1.50187 8.39815 1.7775C8.13378 2.06156 8.01284 2.44687 8.04378 2.89406C8.07472 3.33843 8.24909 3.75468 8.53597 4.06125C8.80034 4.34531 9.12659 4.5 9.45003 4.5C9.77628 4.5 10.0997 4.3425 10.3641 4.06125C10.651 3.75468 10.8253 3.34125 10.8563 2.89406C10.8872 2.46093 10.7607 2.06437 10.4963 1.78312C10.2403 1.50187 9.86628 1.35 9.45003 1.35Z" fill="#373737"/>
<path d="M13.1569 10.35H5.74316C5.49847 10.35 5.27347 10.2404 5.12441 10.0491C4.96972 9.84942 4.91347 9.57942 4.97535 9.32349C5.2116 8.37286 5.79941 7.58536 6.67129 7.04255C7.44472 6.56161 8.43191 6.29724 9.44722 6.29724C10.4822 6.29724 11.4441 6.55036 12.2232 7.0313C13.0978 7.56849 13.6857 8.36161 13.9219 9.32349C13.9838 9.57942 13.9275 9.84942 13.7728 10.0491C13.6266 10.2404 13.4016 10.35 13.1569 10.35ZM5.87535 9.45005H13.0275C12.5635 7.79067 10.8225 7.20005 9.45004 7.20005C8.08316 7.20005 6.34504 7.79067 5.87535 9.45005Z" fill="#373737"/>
<path d="M4.1344 5.51244C3.1444 5.51244 2.27534 4.59275 2.19378 3.46213C2.15159 2.88275 2.33159 2.34838 2.69721 1.95463C3.06003 1.5665 3.56909 1.35275 4.13159 1.35275C4.69128 1.35275 5.20034 1.56932 5.56315 1.96025C5.93159 2.35682 6.11159 2.89119 6.0694 3.46494C5.99346 4.59275 5.12159 5.51244 4.1344 5.51244ZM4.1344 2.24994C3.82503 2.24994 3.5494 2.36244 3.35815 2.56775C3.16128 2.77869 3.06846 3.06557 3.09378 3.39744C3.14159 4.05557 3.6169 4.61244 4.1344 4.61244C4.6519 4.61244 5.13003 4.05557 5.17503 3.39744C5.19753 3.074 5.1019 2.7815 4.90784 2.57056C4.71659 2.36244 4.44096 2.24994 4.1344 2.24994Z" fill="#373737"/>
<path d="M4.33128 9.44994H1.17285C0.950659 9.44994 0.745346 9.34869 0.607534 9.17713C0.466909 8.99713 0.416284 8.74963 0.472534 8.51901C0.666596 7.73432 1.15035 7.08744 1.86753 6.64307C2.50035 6.25213 3.30472 6.03557 4.1316 6.03557C4.84035 6.03557 5.44503 6.15369 5.97941 6.39838C6.20441 6.50244 6.30566 6.76963 6.2016 6.99463C6.09753 7.21963 5.83035 7.32088 5.60535 7.21682C5.19191 7.02838 4.71097 6.93557 4.13441 6.93557C3.10785 6.93557 1.81128 7.36307 1.40066 8.55276H4.33128C4.57878 8.55276 4.78128 8.75526 4.78128 9.00276C4.78128 9.25026 4.57878 9.44994 4.33128 9.44994Z" fill="#373737"/>
</svg>
