<svg width="7" height="7" viewBox="0 0 7 7" fill="none" xmlns="http://www.w3.org/2000/svg">
<path d="M4.1961 3.40018L6.42267 1.17361C6.52834 1.06813 6.58778 0.924985 6.58791 0.775673C6.58804 0.626362 6.52885 0.483114 6.42337 0.377442C6.31788 0.27177 6.17474 0.21233 6.02543 0.212198C5.87612 0.212066 5.73287 0.271253 5.6272 0.376739L3.40063 2.6033L1.17407 0.376739C1.0684 0.271067 0.925077 0.2117 0.775634 0.2117C0.626191 0.2117 0.482869 0.271067 0.377196 0.376739C0.271524 0.482411 0.212158 0.625733 0.212158 0.775176C0.212158 0.924619 0.271524 1.06794 0.377196 1.17361L2.60376 3.40018L0.377196 5.62674C0.271524 5.73241 0.212158 5.87573 0.212158 6.02518C0.212158 6.17462 0.271524 6.31794 0.377196 6.42361C0.482869 6.52929 0.626191 6.58865 0.775634 6.58865C0.925077 6.58865 1.0684 6.52929 1.17407 6.42361L3.40063 4.19705L5.6272 6.42361C5.73287 6.52929 5.87619 6.58865 6.02563 6.58865C6.17508 6.58865 6.3184 6.52929 6.42407 6.42361C6.52974 6.31794 6.58911 6.17462 6.58911 6.02518C6.58911 5.87573 6.52974 5.73241 6.42407 5.62674L4.1961 3.40018Z" fill="white"/>
</svg>
