<svg width="14" height="11" viewBox="0 0 14 11" fill="none" xmlns="http://www.w3.org/2000/svg">
<path d="M11.525 0.449982H2.075C1.65742 0.450428 1.25707 0.616509 0.9618 0.911782C0.666527 1.20705 0.500447 1.6074 0.5 2.02498V8.77498C0.500447 9.19256 0.666527 9.59291 0.9618 9.88818C1.25707 10.1835 1.65742 10.3495 2.075 10.35H11.525C11.9426 10.3495 12.3429 10.1835 12.6382 9.88818C12.9335 9.59291 13.0996 9.19256 13.1 8.77498V2.02498C13.0996 1.6074 12.9335 1.20705 12.6382 0.911782C12.3429 0.616509 11.9426 0.450428 11.525 0.449982ZM11.1262 3.0552L7.07619 6.2052C6.99721 6.26659 6.90003 6.29992 6.8 6.29992C6.69997 6.29992 6.60279 6.26659 6.52381 6.2052L2.47381 3.0552C2.42623 3.01927 2.38626 2.97423 2.35623 2.92272C2.3262 2.87121 2.30671 2.81424 2.29889 2.75512C2.29107 2.69601 2.29507 2.63593 2.31067 2.57838C2.32627 2.52083 2.35315 2.46695 2.38975 2.41988C2.42635 2.37281 2.47194 2.33348 2.52387 2.30418C2.5758 2.27487 2.63304 2.25619 2.69226 2.2492C2.75147 2.24221 2.81149 2.24706 2.86881 2.26346C2.92614 2.27987 2.97963 2.3075 3.02619 2.34476L6.8 5.27989L10.5738 2.34476C10.6682 2.2735 10.7868 2.24225 10.904 2.25776C11.0213 2.27327 11.1277 2.3343 11.2003 2.42765C11.2728 2.52101 11.3058 2.63918 11.2919 2.75661C11.278 2.87405 11.2185 2.98131 11.1262 3.0552Z" fill="#0066FF"/>
</svg>
