<svg width="15" height="17" viewBox="0 0 15 17" fill="none" xmlns="http://www.w3.org/2000/svg">
<path fill-rule="evenodd" clip-rule="evenodd" d="M7.44705 0.301132C7.60497 0.199441 7.80375 0.184959 7.97475 0.262685L14.0518 3.02496C14.249 3.11461 14.3756 3.31126 14.3756 3.5279C14.3756 3.74454 14.249 3.94119 14.0518 4.03084L8.29859 6.64591V10.726C11.2531 10.8983 14.3018 12.4515 14.9052 15.4607L14.9052 15.4608C14.9676 15.7721 14.9051 16.1028 14.7066 16.3637C14.5021 16.6325 14.1833 16.7868 13.8231 16.7868H1.66913C1.30896 16.7868 0.990296 16.6323 0.785884 16.3636C0.587519 16.1028 0.525026 15.7721 0.58742 15.4608C1.19046 12.4515 4.23919 10.8983 7.19368 10.726V6.30269C7.1935 6.29455 7.1935 6.28643 7.19368 6.27832V0.765622C7.19368 0.577788 7.28912 0.402822 7.44705 0.301132ZM8.29859 5.43221L12.4881 3.5279L8.29859 1.62359V5.43221ZM7.19368 11.8322C4.51821 12.0019 2.12722 13.4002 1.67079 15.6779L1.12918 15.5694L1.67079 15.6779C1.67051 15.6793 1.67027 15.6806 1.67007 15.6819H13.8226C13.8224 15.6807 13.8221 15.6793 13.8218 15.678C13.3651 13.4002 10.974 12.0019 8.29859 11.8322V13.4721C8.29859 13.7772 8.05125 14.0246 7.74614 14.0246C7.44103 14.0246 7.19368 13.7772 7.19368 13.4721V11.8322Z" fill="white"/>
</svg>
