<svg width="13" height="15" viewBox="0 0 13 15" fill="none" xmlns="http://www.w3.org/2000/svg">
<path fill-rule="evenodd" clip-rule="evenodd" d="M3.94867 1.90437e-06L3.94998 0H10.25L10.2513 1.90437e-06C10.7279 0.00138598 11.1846 0.191335 11.5216 0.528355C11.8586 0.865376 12.0486 1.32208 12.05 1.79869L12.05 1.8V12.15C12.05 12.323 11.9508 12.4807 11.7949 12.5556C11.639 12.6305 11.4539 12.6095 11.3189 12.5014L9.79998 11.2863V13.95C9.79998 14.125 9.69849 14.2842 9.53979 14.358C9.3811 14.4318 9.19399 14.407 9.06011 14.2942L5.07498 10.9383L1.08984 14.2942C0.955956 14.407 0.76885 14.4318 0.610157 14.358C0.451463 14.2842 0.349976 14.125 0.349976 13.95V4.05L0.349977 4.04869C0.351362 3.57208 0.541311 3.11538 0.878331 2.77836C1.21535 2.44134 1.67205 2.25139 2.14867 2.25L2.14998 2.25V1.8L2.14998 1.79869C2.15136 1.32208 2.34131 0.865376 2.67833 0.528355C3.01535 0.191335 3.47205 0.00138598 3.94867 1.90437e-06ZM9.79998 10.1337L11.15 11.2137V1.80077C11.1491 1.56214 11.054 1.3335 10.8852 1.16475C10.7165 0.996012 10.4879 0.900848 10.2493 0.9H3.95069C3.71208 0.900848 3.48347 0.996012 3.31473 1.16475C3.14599 1.33349 3.05083 1.5621 3.04998 1.80071V2.25H7.99998L8.00128 2.25C8.4779 2.25139 8.9346 2.44133 9.27162 2.77836C9.60864 3.11538 9.79859 3.57208 9.79997 4.04869L9.79998 4.05V10.1337ZM2.15069 3.15C1.91207 3.15085 1.68346 3.24601 1.51473 3.41475C1.34599 3.58349 1.25082 3.8121 1.24998 4.05072V12.9827L4.78511 10.0058C4.95262 9.86474 5.19734 9.86474 5.36484 10.0058L8.89998 12.9827V4.05077C8.89914 3.81214 8.80398 3.5835 8.63522 3.41475C8.46649 3.24601 8.23788 3.15085 7.99927 3.15H2.15069Z" fill="#373737"/>
</svg>
