<svg width="10" height="10" viewBox="0 0 10 10" fill="none" xmlns="http://www.w3.org/2000/svg">
<path fill-rule="evenodd" clip-rule="evenodd" d="M4.60004 0.699997C4.84856 0.699997 5.05004 0.901469 5.05004 1.15V4.75H8.65004C8.89856 4.75 9.10004 4.95147 9.10004 5.2C9.10004 5.44852 8.89856 5.65 8.65004 5.65H5.05004V9.25C5.05004 9.49852 4.84856 9.7 4.60004 9.7C4.35151 9.7 4.15004 9.49852 4.15004 9.25V5.65H0.550037C0.301508 5.65 0.100037 5.44852 0.100037 5.2C0.100037 4.95147 0.301508 4.75 0.550037 4.75H4.15004V1.15C4.15004 0.901469 4.35151 0.699997 4.60004 0.699997Z" fill="#005567" fill-opacity="0.5"/>
</svg>
